<?xml version="1.0" standalone="no"?>
<!DOCTYPE svg PUBLIC "-//W3C//DTD SVG 20010904//EN"
 "http://www.w3.org/TR/2001/REC-SVG-20010904/DTD/svg10.dtd">
<svg version="1.0" xmlns="http://www.w3.org/2000/svg"
 width="1024.000000pt" height="1024.000000pt" viewBox="0 0 1024.000000 1024.000000"
 preserveAspectRatio="xMidYMid meet">

<g transform="translate(0.000000,1024.000000) scale(0.100000,-0.100000)"
fill="#000000" stroke="none">
<path d="M0 5120 l0 -5120 5120 0 5120 0 0 5120 0 5120 -5120 0 -5120 0 0
-5120z m4916 4070 c33 -96 101 -224 172 -323 94 -131 213 -236 469 -411 260
-178 412 -387 464 -639 19 -93 24 -261 10 -322 -7 -28 -8 -27 -15 20 -3 28
-11 84 -17 125 -20 136 -98 304 -189 404 -56 61 -251 208 -347 262 l-62 35 50
-91 c47 -84 79 -159 79 -182 0 -5 -46 34 -102 86 -112 106 -206 182 -214 173
-3 -3 5 -27 17 -54 27 -60 58 -131 69 -159 11 -28 -126 109 -173 173 -20 28
-37 53 -37 57 0 3 -11 29 -25 58 -14 28 -25 57 -25 63 0 6 -11 22 -25 35 -33
31 -127 189 -158 267 -58 142 -89 296 -81 392 7 74 34 186 60 246 l17 40 18
-90 c10 -49 30 -124 45 -165z m-2094 -158 c170 -226 423 -405 673 -477 102
-29 237 -62 294 -71 36 -5 41 -8 27 -16 -10 -5 -22 -6 -29 -1 -7 5 -25 10 -42
12 -29 3 -29 2 -13 -16 16 -18 16 -19 -7 -21 -18 -1 -23 2 -19 13 4 9 0 15 -9
15 -8 0 -18 6 -20 13 -3 6 -6 7 -6 2 -1 -6 13 -26 29 -45 17 -19 30 -30 29
-25 -3 26 3 28 21 5 11 -14 20 -20 20 -13 0 6 -5 15 -10 18 -6 4 -4 12 5 22 9
8 19 12 23 9 3 -4 0 -11 -7 -15 -8 -5 -9 -11 -3 -15 6 -3 13 0 16 6 3 9 9 8
20 -6 13 -16 18 -17 31 -6 22 18 18 -4 -4 -24 -18 -17 -20 -17 -31 1 -11 18
-9 7 5 -29 4 -11 3 -18 -4 -18 -6 0 -11 4 -11 8 0 10 -51 9 -68 -2 -13 -8 -57
12 -48 21 7 8 -13 33 -26 33 -6 0 -4 -7 3 -16 12 -14 11 -16 -6 -12 -11 2 -19
9 -18 16 2 6 -4 9 -11 6 -8 -3 -30 1 -48 9 -157 72 -197 92 -227 114 -55 42
-31 11 43 -56 142 -127 355 -275 486 -336 36 -16 67 -32 70 -35 3 -3 45 -18
93 -34 93 -32 118 -49 99 -68 -40 -40 -214 -19 -364 43 -145 60 -421 247 -570
388 -38 35 -68 59 -68 53 0 -14 -68 -20 -81 -7 -25 25 9 -37 77 -142 41 -61
103 -142 139 -178 71 -72 64 -72 -35 1 -165 120 -305 292 -400 489 -70 142
-104 255 -130 425 -29 183 -28 188 26 95 25 -44 64 -104 86 -133z m1148 -572
c0 -5 -2 -10 -4 -10 -3 0 -8 5 -11 10 -3 6 -1 10 4 10 6 0 11 -4 11 -10z m329
-16 c253 -29 335 -65 351 -153 4 -22 4 -43 1 -47 -10 -9 -7 -48 4 -57 6 -5
-12 -6 -40 -2 -27 3 -95 8 -150 12 -91 5 -103 8 -138 35 -20 16 -42 26 -49 22
-6 -4 -8 -3 -4 4 3 6 -8 21 -26 33 -23 17 -33 20 -36 10 -4 -11 -6 -11 -13 0
-4 7 -11 10 -15 6 -4 -4 -2 -13 4 -19 14 -14 16 -28 5 -28 -13 0 -35 54 -23
58 5 2 10 8 10 14 0 5 -9 6 -21 3 -18 -6 -20 -4 -14 14 5 16 3 19 -8 15 -8 -3
-17 2 -20 10 -4 9 -11 16 -16 16 -6 0 -7 -7 -4 -17 4 -11 3 -14 -6 -9 -7 4 -9
16 -5 28 5 17 3 19 -15 13 -16 -5 -20 -3 -15 9 3 9 2 16 -4 16 -6 0 -19 3 -29
7 -16 6 -16 5 -4 -10 8 -10 12 -19 10 -22 -2 -2 -15 12 -27 32 l-23 35 93 -7
c51 -3 153 -13 227 -21z m-385 -29 c-25 -19 -38 -19 -22 0 7 8 19 14 27 15 11
0 9 -4 -5 -15z m76 11 c0 -11 -19 -15 -25 -6 -3 5 1 10 9 10 9 0 16 -2 16 -4z
m-40 -26 c0 -5 -2 -10 -4 -10 -3 0 -8 5 -11 10 -3 6 -1 10 4 10 6 0 11 -4 11
-10z m35 -26 c-23 -23 -30 -10 -8 15 10 12 19 17 21 11 2 -5 -4 -17 -13 -26z
m-99 -1 c14 -19 20 -52 7 -39 -5 4 -8 13 -8 19 0 5 -6 12 -12 15 -7 2 -13 -3
-13 -12 0 -9 -7 -16 -15 -16 -20 0 -19 9 3 31 22 22 22 23 38 2z m44 2 c0 -8
-4 -15 -10 -15 -5 0 -10 7 -10 15 0 8 5 15 10 15 6 0 10 -7 10 -15z m-1552 -4
c-4 -14 -215 -171 -228 -171 -6 0 -23 6 -38 14 -15 7 -38 17 -52 21 -24 7 -24
7 -7 -12 9 -11 17 -25 17 -31 0 -6 7 -15 15 -19 11 -6 0 -20 -48 -58 -34 -27
-86 -72 -114 -99 -29 -27 -53 -45 -53 -41 0 4 14 53 32 109 17 56 36 124 42
153 10 47 17 56 71 97 l60 45 153 1 c92 0 152 -4 150 -9z m1646 -12 c-3 -5
-10 -7 -15 -3 -5 3 -7 10 -3 15 3 5 10 7 15 3 5 -3 7 -10 3 -15z m603 15 c-3
-3 -12 -4 -19 -1 -8 3 -5 6 6 6 11 1 17 -2 13 -5z m-843 -29 c11 -8 17 -17 14
-21 -8 -8 -48 14 -48 26 0 14 12 12 34 -5z m176 -5 c0 -5 -4 -10 -9 -10 -6 0
-13 5 -16 10 -3 6 1 10 9 10 9 0 16 -4 16 -10z m33 -5 c-3 -9 -8 -14 -10 -11
-3 3 -2 9 2 15 9 16 15 13 8 -4z m57 10 c0 -3 -11 -17 -25 -31 -29 -28 -34
-19 -7 14 16 20 32 29 32 17z m70 -5 c0 -5 -2 -10 -4 -10 -3 0 -8 5 -11 10 -3
6 -1 10 4 10 6 0 11 -4 11 -10z m-280 -20 c0 -5 -7 -10 -16 -10 -8 0 -12 5 -9
10 3 6 10 10 16 10 5 0 9 -4 9 -10z m40 -5 c0 -8 -7 -15 -16 -15 -14 0 -14 3
-4 15 7 8 14 15 16 15 2 0 4 -7 4 -15z m50 8 c0 -14 -19 -38 -25 -32 -8 8 5
39 16 39 5 0 9 -3 9 -7z m40 -13 c0 -5 -2 -10 -4 -10 -3 0 -8 5 -11 10 -3 6
-1 10 4 10 6 0 11 -4 11 -10z m80 -16 c0 -3 -7 -12 -15 -20 -16 -17 -18 -14
-9 10 6 15 24 23 24 10z m30 -23 c-6 -12 -16 -21 -23 -21 -7 0 -6 4 3 10 8 5
11 10 6 10 -5 0 -3 7 4 15 17 21 24 12 10 -14z m50 9 c0 -5 -2 -10 -4 -10 -3
0 -8 5 -11 10 -3 6 -1 10 4 10 6 0 11 -4 11 -10z m-23 -25 c0 -8 -4 -15 -9
-15 -10 0 -11 14 -1 23 9 10 10 9 10 -8z m1568 -245 c11 -17 55 -12 55 7 0 28
16 2 27 -42 5 -22 6 -51 3 -65 l-6 -25 -17 32 c-9 17 -38 52 -64 78 -27 26
-38 42 -26 36 12 -6 25 -16 28 -21z m-2866 -209 c135 -7 135 -4 -13 -103 -50
-34 -116 -80 -146 -102 -40 -30 -65 -41 -90 -41 -21 0 -35 -5 -35 -13 0 -16
-26 -39 -202 -175 -84 -65 -153 -123 -153 -129 0 -6 -2 -9 -5 -7 -2 3 13 57
34 120 21 62 51 160 67 217 l28 103 86 69 85 69 115 -1 c63 0 166 -3 229 -7z
m1718 -7 c2 -5 -37 -15 -89 -22 -275 -38 -564 -136 -775 -263 -111 -67 -270
-186 -310 -232 -18 -20 -37 -37 -43 -37 -5 0 -10 -3 -10 -8 0 -4 -20 -27 -45
-52 -41 -41 -59 -70 -35 -55 18 11 11 -3 -15 -31 -13 -14 -22 -31 -18 -37 4
-6 0 -8 -11 -4 -10 4 -15 3 -11 -3 3 -6 13 -10 21 -10 8 0 14 -5 14 -11 0 -6
-9 -8 -20 -4 -11 4 -20 2 -20 -4 0 -6 6 -11 13 -11 8 0 8 -3 1 -8 -17 -11 -25
-42 -10 -36 11 4 13 -5 9 -39 -4 -29 0 -54 11 -76 9 -17 15 -35 12 -40 -3 -4
9 -22 26 -40 l31 -32 -30 -42 c-44 -63 -47 -68 -27 -60 11 4 15 3 11 -4 -18
-29 -49 -222 -55 -343 -9 -160 0 -290 28 -421 11 -53 18 -105 14 -115 -5 -16
-4 -16 5 -4 6 9 11 10 11 3 0 -6 3 -20 6 -30 3 -10 2 -14 -3 -8 -4 6 -13 11
-18 12 -6 1 -23 5 -38 8 -25 7 -39 -7 -19 -18 4 -2 1 -2 -7 0 -9 2 -11 -2 -7
-14 6 -14 4 -15 -5 -6 -6 6 -18 9 -27 6 -10 -4 -13 -2 -8 5 4 7 14 12 23 12 9
0 13 6 10 14 -4 11 3 16 26 19 31 4 31 5 -3 3 -19 0 -34 -5 -32 -11 4 -14 -39
-24 -60 -13 -9 4 -25 8 -35 7 -10 0 -3 -5 15 -10 39 -12 43 -30 5 -25 -16 2
-20 1 -10 -1 9 -2 15 -9 12 -14 -4 -5 1 -9 9 -9 8 0 18 -4 21 -10 4 -7 -3 -7
-20 0 -34 13 -38 13 -29 -2 4 -7 3 -8 -5 -4 -6 4 -9 11 -6 16 3 4 -2 11 -11
14 -9 4 -14 9 -11 12 3 4 0 13 -8 21 -11 11 -12 19 -5 34 7 13 7 19 0 19 -5 0
-10 -5 -10 -11 0 -61 -99 176 -115 277 -16 95 -20 201 -10 225 9 23 -10 33
-25 14 -10 -12 -10 -15 0 -15 8 0 11 -3 7 -6 -3 -3 -11 -3 -17 1 -8 5 -6 13 6
27 15 15 16 21 5 27 -16 10 -6 31 13 31 16 0 30 43 16 48 -6 2 -10 8 -10 13 0
6 4 8 9 5 10 -7 44 121 36 135 -4 5 -1 9 4 9 6 0 11 5 11 10 0 7 -6 7 -19 0
-35 -18 -37 -10 -3 11 36 24 41 36 12 34 -24 -2 -64 -51 -54 -66 4 -7 3 -9 -3
-6 -12 7 -63 -71 -93 -143 -13 -30 -27 -60 -32 -66 -15 -21 -69 -199 -71 -235
-1 -21 -6 -34 -11 -31 -5 3 -7 -7 -4 -21 3 -15 1 -24 -3 -21 -5 3 -11 -8 -15
-23 -3 -15 -8 -36 -11 -47 -3 -13 -1 -16 7 -11 7 4 5 -5 -4 -23 -9 -17 -16
-55 -17 -84 -1 -54 -2 -55 -13 -5 -5 21 -12 27 -34 27 -15 0 -33 5 -39 11 -17
17 -51 -11 -57 -46 -2 -16 -3 29 0 100 10 341 129 711 321 997 162 240 378
459 593 601 224 147 536 250 835 276 131 11 348 8 352 -5z m292 -4 c47 -10
208 -45 356 -75 448 -93 430 -86 721 -306 82 -63 254 -193 382 -289 127 -96
231 -178 232 -181 0 -4 -10 -9 -22 -13 -19 -4 -94 -51 -163 -100 -9 -7 -41 11
-106 59 -52 38 -106 80 -121 94 -15 13 -30 22 -33 19 -3 -2 -8 -24 -11 -47 -7
-47 -33 -81 -63 -81 -10 0 -54 10 -97 23 -58 17 -100 38 -157 79 -113 81 -159
102 -242 106 -127 7 -310 -39 -432 -109 -48 -27 -53 -34 -60 -77 -14 -85 -7
-232 15 -312 11 -41 19 -76 18 -78 -6 -5 -91 127 -121 188 -15 30 -36 84 -47
120 -32 107 -37 370 -7 370 5 0 9 -8 9 -17 0 -14 2 -15 9 -4 7 11 23 11 95 1
47 -7 86 -16 86 -20 0 -10 27 -7 37 5 4 4 2 5 -4 1 -8 -4 -13 -1 -13 9 0 9 6
15 13 13 7 -2 30 16 51 39 23 26 53 47 74 53 88 24 193 2 259 -55 l41 -35 36
34 c35 34 128 76 167 76 19 0 19 1 4 31 -24 46 -84 108 -124 129 -20 10 -62
21 -94 25 -47 6 -55 10 -46 21 6 8 18 14 27 14 8 0 13 2 10 5 -3 3 -43 -5 -90
-19 -46 -13 -122 -27 -169 -31 -46 -3 -93 -8 -105 -10 -15 -3 -53 22 -135 89
-127 104 -301 276 -280 276 7 0 52 -9 100 -20z m-3089 -150 c0 -10 -83 -70
-99 -70 -5 0 -38 -24 -73 -54 -35 -30 -64 -53 -65 -52 -1 1 5 29 13 61 11 46
23 68 51 93 33 29 42 32 105 32 37 0 68 -4 68 -10z m-31 -112 c-2 -2 -17 -14
-34 -28 -16 -14 -23 -17 -16 -7 7 9 10 17 5 18 -10 1 26 17 40 18 5 1 7 0 5
-1z m2717 -59 c-146 -75 -291 -192 -426 -344 -103 -115 -145 -174 -218 -305
-68 -122 -72 -132 -57 -154 8 -10 19 -15 25 -11 8 5 8 10 0 20 -8 10 -8 15 0
20 7 4 10 16 7 26 -6 22 1 24 26 5 21 -16 22 -26 2 -26 -17 0 -20 -16 -6 -25
6 -3 13 0 18 7 14 22 57 42 61 29 5 -15 21 -14 56 4 16 9 31 13 34 10 3 -2 -2
-7 -11 -11 -12 -4 -15 -14 -11 -33 l6 -26 -20 24 c-19 23 -20 23 -30 5 -10
-18 -11 -18 -17 -1 -8 18 -35 24 -35 7 0 -5 7 -10 15 -10 9 0 12 -6 9 -15 -4
-8 -10 -15 -15 -15 -5 0 -17 -7 -28 -16 -16 -14 -17 -20 -8 -35 15 -24 23 -24
48 0 13 12 17 21 10 26 -6 3 -14 -1 -17 -9 -3 -9 -12 -16 -20 -16 -25 0 -15
17 26 44 36 23 42 25 55 12 19 -19 19 -36 -1 -36 -8 0 -13 4 -9 9 3 5 1 12 -4
15 -20 13 -19 -12 0 -33 16 -17 18 -25 9 -36 -6 -8 -10 -18 -7 -22 3 -4 -3
-46 -13 -92 -10 -46 -16 -90 -13 -98 3 -8 0 -19 -8 -24 -10 -6 -10 -9 -1 -9 7
0 12 -14 12 -35 0 -21 -5 -35 -12 -36 -10 0 -10 -2 0 -6 6 -2 12 -11 12 -18 0
-7 -6 -16 -12 -18 -8 -3 -6 -6 5 -6 9 -1 17 -9 17 -19 0 -39 44 -190 75 -258
111 -244 349 -440 619 -510 107 -28 291 -42 696 -54 337 -10 415 -10 530 3 74
8 136 14 137 13 1 -1 -62 -49 -140 -107 -78 -58 -144 -104 -146 -102 -3 2 3 9
11 16 9 6 21 30 28 52 7 22 18 43 24 47 29 20 -51 3 -251 -53 -249 -70 -309
-83 -448 -103 -164 -24 -282 -29 -390 -16 -55 7 -108 12 -117 12 -10 -1 -18 3
-18 9 0 5 -13 9 -29 9 -35 0 -93 19 -86 29 2 4 -8 8 -23 8 -80 0 -285 134
-412 270 -79 85 -181 233 -228 333 -29 60 -60 159 -85 270 -5 25 -17 50 -26
57 -15 12 -15 13 0 7 19 -6 34 22 15 29 -9 4 -12 29 -11 91 2 79 -4 102 -20
76 -9 -15 -25 -12 -25 6 0 8 5 12 10 9 6 -3 17 1 26 10 17 17 13 33 -21 79
-13 18 -15 18 -42 0 -56 -38 -68 -45 -85 -50 -15 -5 -26 -24 -14 -24 6 0 101
52 114 62 8 8 12 6 12 -3 0 -15 -39 -45 -53 -41 -4 1 -15 -4 -22 -12 -8 -8
-20 -16 -27 -19 -10 -3 -9 -9 5 -24 21 -24 22 -33 3 -33 -8 0 -18 9 -21 20 -3
11 -11 20 -16 20 -5 0 -9 7 -9 15 0 8 -4 15 -10 15 -14 0 -12 -12 7 -40 28
-40 53 -65 53 -52 0 7 6 12 14 12 8 0 16 6 19 13 2 6 8 8 13 4 5 -4 2 -12 -6
-17 -12 -7 -12 -12 -2 -22 15 -15 16 -28 2 -28 -5 0 -10 7 -10 15 0 18 -21 20
-38 3 -8 -8 -12 -9 -12 -1 0 6 -19 31 -41 54 -29 31 -40 37 -35 22 4 -13 2
-24 -5 -29 -25 -15 -1 162 36 274 150 448 473 766 915 902 152 47 184 50 106
9z m237 -204 c-11 -59 -14 -119 -10 -230 6 -177 29 -270 105 -427 44 -91 50
-112 26 -89 -5 6 -14 4 -23 -6 -11 -12 -11 -14 0 -12 28 3 39 -1 39 -17 0 -14
-3 -14 -15 -4 -11 9 -15 9 -15 1 0 -7 -4 -9 -10 -6 -5 3 -10 1 -10 -5 0 -7 6
-10 14 -7 8 3 23 -8 36 -26 22 -28 24 -29 31 -11 11 26 11 42 0 25 -8 -13 -31
-8 -31 7 0 17 41 9 51 -10 9 -16 8 -19 -2 -13 -8 5 -10 4 -5 -3 4 -7 14 -12
23 -12 9 0 13 -6 9 -15 -3 -9 0 -15 9 -15 8 0 15 -5 15 -12 0 -6 7 -20 17 -30
10 -11 12 -18 4 -18 -6 0 -14 7 -17 15 -8 20 -24 19 -24 -2 0 -14 -3 -14 -12
-5 -10 10 -10 15 2 22 13 8 12 13 -7 32 -12 12 -26 18 -30 14 -4 -4 1 -14 11
-22 11 -8 14 -14 7 -14 -16 0 -42 26 -34 34 4 3 -1 6 -10 6 -10 0 -17 -4 -17
-10 0 -5 -5 -10 -10 -10 -7 0 -7 7 1 21 7 14 7 25 1 31 -6 6 -12 0 -16 -17 -4
-14 -10 -24 -14 -21 -7 4 -8 -81 -2 -94 1 -3 2 -8 1 -13 -1 -4 4 -28 10 -55 6
-26 13 -56 14 -67 2 -11 4 -22 4 -25 1 -3 5 1 9 8 6 8 9 2 9 -17 0 -35 -7 -32
-54 19 -120 134 -196 250 -244 375 -30 77 -31 84 -26 200 7 192 69 396 169
562 18 29 33 51 34 50 1 -1 -4 -38 -13 -82z m3348 4 c176 -23 383 -96 505
-178 139 -94 305 -283 390 -444 39 -73 87 -207 75 -207 -4 0 -25 18 -46 41
-82 84 -225 167 -350 205 -82 24 -275 25 -364 1 -94 -26 -237 -96 -303 -150
-32 -26 -62 -47 -67 -47 -5 0 -13 25 -16 55 -4 30 -12 55 -18 55 -17 0 118
134 188 187 86 65 203 120 290 134 41 7 71 17 68 22 -3 5 0 13 7 17 46 29
-327 24 -425 -5 -33 -10 -69 -18 -80 -18 -11 0 -86 24 -167 53 l-147 52 -50
-39 c-28 -21 -49 -42 -47 -48 2 -5 -4 -18 -12 -28 -14 -16 -14 -19 -2 -27 9
-6 10 -10 3 -10 -6 0 -15 -9 -18 -21 -4 -11 -12 -18 -19 -16 -7 3 -23 -4 -37
-14 -13 -10 -19 -19 -12 -19 6 0 15 5 18 10 3 6 12 10 19 10 11 0 10 -10 -3
-47 -17 -51 -33 -73 -50 -73 -17 0 -13 10 12 30 12 10 19 21 16 24 -4 4 -17
-4 -30 -18 -24 -25 -42 -26 -33 -2 3 9 -5 13 -26 13 -25 0 -29 -4 -24 -19 4
-14 1 -16 -13 -11 -15 5 -16 3 -6 -7 10 -11 16 -11 30 3 17 15 20 14 42 -9 13
-14 30 -23 38 -20 18 7 17 -9 -3 -28 -8 -9 -12 -21 -8 -27 4 -7 -2 -7 -17 1
-21 12 -21 14 -6 25 22 16 21 25 -3 25 -13 0 -18 -5 -14 -15 7 -18 -7 -20 -24
-3 -9 9 -12 9 -12 0 0 -7 5 -12 10 -12 6 0 10 -5 10 -11 0 -6 -9 -8 -22 -3
-20 6 -21 5 -10 -9 10 -12 11 -21 2 -36 -6 -12 -15 -21 -20 -21 -14 0 -12 14
2 28 8 8 9 12 1 12 -6 0 -13 -5 -15 -12 -2 -6 -10 -8 -16 -4 -9 5 -6 16 10 39
12 18 27 35 32 39 6 4 8 10 4 13 -3 3 -19 -13 -36 -37 -47 -65 -55 -73 -60
-60 -2 7 -8 9 -14 6 -6 -4 -5 -10 3 -15 11 -6 11 -11 1 -21 -9 -9 -12 -9 -12
1 0 7 -5 9 -11 6 -6 -4 1 -16 17 -30 17 -14 22 -25 15 -29 -16 -10 -14 -26 4
-26 8 0 15 -3 15 -8 0 -4 9 -13 20 -20 17 -10 23 -10 35 2 8 8 15 19 15 24 0
6 6 13 13 16 8 3 6 10 -8 22 -14 11 -16 18 -7 21 6 3 12 11 12 19 0 8 5 14 10
14 6 0 10 -3 10 -8 0 -4 10 -12 22 -17 27 -13 38 -38 11 -28 -10 3 -21 11 -25
17 -4 6 -11 7 -15 2 -4 -5 -2 -11 5 -13 17 -7 15 -21 -8 -45 -11 -12 -20 -24
-20 -27 0 -11 42 -33 48 -26 4 4 -1 11 -11 16 -21 12 -22 29 -2 29 8 0 15 8
15 17 0 14 3 14 12 5 10 -10 10 -15 -2 -22 -13 -9 -13 -11 -1 -19 12 -7 12
-13 3 -24 -7 -7 -9 -17 -5 -20 13 -13 -22 -6 -41 8 -14 11 -23 12 -33 4 -9 -9
-14 -7 -19 5 -3 9 -12 16 -20 16 -8 0 -14 5 -14 10 0 6 -7 10 -15 10 -8 0 -15
5 -15 10 0 6 -8 10 -17 10 -17 1 -17 1 -1 14 16 12 16 14 -3 30 -23 19 -38 14
-21 -7 12 -14 0 -42 -19 -42 -7 0 -17 -8 -23 -18 -8 -13 -8 -20 3 -26 7 -5 10
-14 7 -20 -11 -17 -26 -13 -26 7 -1 16 -1 16 -11 0 -8 -14 -4 -24 15 -45 27
-29 27 -39 1 -29 -9 3 -14 10 -11 15 3 5 -1 11 -9 15 -17 6 -30 -10 -15 -19 5
-3 10 -14 9 -23 0 -14 -2 -14 -8 2 -10 26 -20 7 -14 -26 4 -19 10 -25 22 -21
14 4 14 3 0 -9 -29 -25 -1 -223 52 -373 16 -44 29 -81 29 -81 0 -1 -9 -4 -20
-7 -12 -3 -20 -14 -20 -26 0 -12 -4 -21 -10 -21 -5 0 -10 -7 -10 -15 0 -9 -7
-29 -15 -45 -9 -17 -11 -30 -5 -30 5 0 10 -5 10 -11 0 -5 -4 -8 -9 -4 -6 3 -6
-6 -1 -25 7 -25 5 -32 -13 -42 -34 -18 -46 -33 -37 -49 5 -8 3 -19 -5 -26 -11
-10 -20 -2 -48 45 -149 246 -214 505 -187 737 32 275 188 535 426 712 250 185
563 270 855 232z m-6351 -194 c0 -6 -117 -85 -127 -85 -4 0 -33 -26 -65 -57
-59 -58 -68 -57 -47 8 6 19 13 40 15 47 3 10 9 9 28 -4 14 -8 30 -13 36 -9 19
12 10 23 -25 29 -19 4 -35 9 -35 12 0 2 15 18 33 34 30 27 38 29 110 30 42 0
77 -2 77 -5z m2642 -175 c-12 -256 106 -567 335 -879 105 -143 162 -201 271
-272 58 -38 108 -69 113 -69 4 0 11 -4 14 -10 24 -39 -266 147 -410 263 -150
121 -297 295 -363 432 -42 84 -41 83 -53 65 -16 -23 -4 231 15 315 16 74 72
245 80 245 1 0 0 -40 -2 -90z m-1012 60 c0 -5 -5 -10 -11 -10 -5 0 -7 5 -4 10
3 6 8 10 11 10 2 0 4 -4 4 -10z m605 -110 c3 -5 -1 -10 -10 -10 -9 0 -13 5
-10 10 3 6 8 10 10 10 2 0 7 -4 10 -10z m-1795 -19 c0 -18 -112 -91 -124 -82
-15 12 -28 3 -51 -34 -10 -16 -35 -45 -56 -63 l-38 -33 20 55 c10 31 19 65 19
76 0 12 17 37 38 55 35 34 40 35 115 35 42 0 77 -4 77 -9z m1850 -31 c0 -5 -5
-10 -11 -10 -5 0 -7 5 -4 10 3 6 8 10 11 10 2 0 4 -4 4 -10z m-100 -20 c0 -5
-7 -10 -15 -10 -8 0 -15 5 -15 10 0 6 7 10 15 10 8 0 15 -4 15 -10z m25 -27
c-9 -8 -19 -13 -22 -9 -9 8 18 37 28 30 5 -3 2 -12 -6 -21z m-56 -2 c11 -11
17 -22 14 -25 -12 -11 -23 -6 -23 10 0 10 -6 14 -15 10 -15 -5 -20 5 -8 17 9
10 11 9 32 -12z m3816 -8 c-81 -123 -136 -295 -150 -468 -17 -210 -13 -197
-55 -185 -25 7 -30 6 -30 -8 0 -15 -2 -15 -10 -2 -14 22 -12 9 9 -51 92 -261
274 -510 661 -904 338 -344 416 -472 481 -788 24 -118 37 -293 22 -284 -6 4
-14 19 -17 34 -16 66 -117 231 -220 358 -90 111 -226 255 -532 560 -296 295
-406 416 -507 555 -56 77 -71 167 -64 375 3 93 12 187 22 224 12 52 13 66 3
73 -10 6 -8 8 4 8 11 0 15 5 12 15 -4 8 -1 15 5 15 6 0 11 4 11 9 0 9 60 109
146 242 37 57 207 249 221 249 3 0 -3 -12 -12 -27z m-3715 -4 c0 -6 -4 -8 -9
-4 -5 3 -12 1 -16 -5 -3 -5 -11 -10 -17 -10 -6 0 -3 8 8 19 19 18 34 19 34 0z
m211 -189 c21 -149 69 -278 191 -520 106 -209 168 -302 279 -417 49 -50 50
-52 20 -43 -45 13 -145 65 -215 112 -173 118 -297 295 -340 487 -27 118 -23
294 10 406 38 135 39 136 41 90 2 -22 8 -74 14 -115z m3186 85 c8 -9 12 -19 8
-23 -4 -4 -10 -1 -12 6 -3 6 -11 12 -19 12 -9 0 -12 5 -9 10 8 14 14 13 32 -5z
m-12 -35 c10 -11 15 -23 10 -28 -4 -4 -10 -1 -12 6 -3 6 -11 12 -18 12 -7 0
-15 7 -19 15 -8 22 18 19 39 -5z m-95 -7 c11 -10 20 -21 20 -25 0 -13 -20 -9
-36 6 -13 14 -19 36 -9 36 3 0 14 -8 25 -17z m-25 -29 c29 -19 32 -34 8 -34
-15 0 -13 -4 7 -20 32 -24 20 -37 -14 -15 -22 14 -24 20 -14 32 10 12 9 17 -5
24 -9 6 -17 14 -17 19 0 14 7 12 35 -6z m-4315 -34 c0 -5 -4 -10 -10 -10 -5 0
-10 5 -10 10 0 6 5 10 10 10 6 0 10 -4 10 -10z m3190 -10 c58 -11 117 -20 132
-20 17 0 27 -5 27 -12 -1 -7 -47 -57 -103 -110 l-101 -97 -85 50 c-47 27 -87
54 -88 59 -2 6 -9 7 -14 4 -7 -4 -8 -2 -4 4 4 6 13 9 21 6 8 -4 12 -11 8 -17
-3 -6 -1 -7 5 -3 6 4 9 13 5 22 -4 11 4 9 31 -7 24 -14 34 -17 31 -7 -4 9 2
14 15 15 12 1 18 -2 14 -9 -4 -7 -2 -8 5 -4 12 8 10 26 -8 86 -13 41 -14 60
-3 60 4 0 54 -9 112 -20z m1180 -1 c0 -5 -7 -9 -15 -9 -15 0 -20 12 -9 23 8 8
24 -1 24 -14z m-4380 -40 c0 -6 -4 -7 -10 -4 -5 3 -10 11 -10 16 0 6 5 7 10 4
6 -3 10 -11 10 -16z m4279 -9 c6 0 11 -4 11 -10 0 -5 5 -10 11 -10 16 0 43
-30 34 -38 -4 -4 -10 -1 -12 6 -3 6 -11 12 -18 12 -7 0 -15 6 -18 13 -4 10 -7
10 -18 0 -16 -16 -29 -17 -29 -3 0 6 7 10 17 10 15 0 15 1 0 18 -10 10 -17 23
-17 28 0 5 7 1 14 -8 7 -10 18 -18 25 -18z m-49 -6 c0 -17 -22 -14 -28 4 -2 7
3 12 12 12 9 0 16 -7 16 -16z m760 13 c0 -2 -9 -12 -20 -22 -24 -21 -27 -14
-4 9 15 15 24 20 24 13z m-5006 -22 c11 -9 14 -15 7 -15 -7 0 -19 7 -27 15
-20 19 -5 19 20 0z m3101 -5 c-3 -5 -1 -10 6 -10 8 0 8 -4 -1 -15 -7 -8 -17
-12 -22 -9 -6 4 -13 2 -17 -4 -4 -6 -12 -7 -20 -3 -11 7 -11 13 -1 27 8 14 10
15 6 3 -3 -13 2 -16 20 -15 14 0 22 6 20 13 -3 6 -2 14 1 17 10 10 15 7 8 -4z
m-3115 -24 c0 -11 -19 -15 -25 -6 -3 5 1 10 9 10 9 0 16 -2 16 -4z m4415 -6
c3 -5 1 -10 -4 -10 -6 0 -11 5 -11 10 0 6 2 10 4 10 3 0 8 -4 11 -10z m-150
-9 c7 -12 -12 -24 -25 -16 -11 7 -4 25 10 25 5 0 11 -4 15 -9z m55 -1 c0 -5
-2 -10 -4 -10 -3 0 -8 5 -11 10 -3 6 -1 10 4 10 6 0 11 -4 11 -10z m-2933 -37
c-3 -10 -5 -4 -5 12 0 17 2 24 5 18 2 -7 2 -21 0 -30z m-1389 15 c14 -2 17
-28 2 -28 -5 0 -10 4 -10 10 0 5 -15 14 -32 20 -32 9 -32 10 -3 5 17 -3 36 -6
43 -7z m4352 2 c0 -5 -2 -10 -4 -10 -3 0 -8 5 -11 10 -3 6 -1 10 4 10 6 0 11
-4 11 -10z m50 0 c0 -5 -2 -10 -4 -10 -3 0 -8 5 -11 10 -3 6 -1 10 4 10 6 0
11 -4 11 -10z m-3640 -20 c0 -5 -4 -10 -9 -10 -6 0 -13 5 -16 10 -3 6 1 10 9
10 9 0 16 -4 16 -10z m1180 0 c0 -5 7 -10 16 -10 8 0 12 5 9 10 -12 20 7 9 37
-20 17 -17 28 -33 25 -37 -3 -3 -17 7 -30 23 l-24 28 -12 -23 c-7 -12 -9 -26
-5 -29 4 -4 9 -1 11 6 7 18 16 15 32 -10 13 -21 13 -22 -3 -9 -15 13 -19 13
-26 0 -8 -11 -12 -11 -24 6 -10 14 -11 22 -3 27 8 5 5 13 -7 27 -11 12 -14 21
-8 21 7 0 12 -4 12 -10z m2350 0 c0 -5 -7 -10 -15 -10 -8 0 -15 5 -15 10 0 6
7 10 15 10 8 0 15 -4 15 -10z m90 0 c0 -5 -2 -10 -4 -10 -3 0 -8 5 -11 10 -3
6 -1 10 4 10 6 0 11 -4 11 -10z m50 0 c0 -5 -2 -10 -4 -10 -3 0 -8 5 -11 10
-3 6 -1 10 4 10 6 0 11 -4 11 -10z m-4465 -20 c3 -5 1 -10 -4 -10 -6 0 -11 5
-11 10 0 6 2 10 4 10 3 0 8 -4 11 -10z m760 0 c-3 -5 -10 -10 -16 -10 -5 0 -9
5 -9 10 0 6 7 10 16 10 8 0 12 -4 9 -10z m3545 -10 c0 -5 -4 -10 -10 -10 -5 0
-10 5 -10 10 0 6 5 10 10 10 6 0 10 -4 10 -10z m40 0 c0 -5 -2 -10 -4 -10 -3
0 -8 5 -11 10 -3 6 -1 10 4 10 6 0 11 -4 11 -10z m50 0 c0 -5 -2 -10 -4 -10
-3 0 -8 5 -11 10 -3 6 -1 10 4 10 6 0 11 -4 11 -10z m50 0 c0 -5 -2 -10 -4
-10 -3 0 -8 5 -11 10 -3 6 -1 10 4 10 6 0 11 -4 11 -10z m-3727 -6 c9 -10 -21
-36 -33 -29 -8 5 -7 11 1 21 12 15 22 18 32 8z m3537 2 c0 -3 -4 -8 -10 -11
-5 -3 -10 -1 -10 4 0 6 5 11 10 11 6 0 10 -2 10 -4z m-2150 -16 c0 -5 -5 -10
-11 -10 -5 0 -7 5 -4 10 3 6 8 10 11 10 2 0 4 -4 4 -10z m2370 0 c0 -5 -4 -10
-10 -10 -5 0 -10 5 -10 10 0 6 5 10 10 10 6 0 10 -4 10 -10z m-200 -10 c0 -5
-5 -10 -11 -10 -5 0 -7 5 -4 10 3 6 8 10 11 10 2 0 4 -4 4 -10z m50 0 c0 -5
-4 -10 -10 -10 -5 0 -10 5 -10 10 0 6 5 10 10 10 6 0 10 -4 10 -10z m50 0 c0
-5 -2 -10 -4 -10 -3 0 -8 5 -11 10 -3 6 -1 10 4 10 6 0 11 -4 11 -10z m-3620
-10 c0 -5 -4 -10 -10 -10 -5 0 -10 5 -10 10 0 6 5 10 10 10 6 0 10 -4 10 -10z
m1375 0 c3 -5 1 -10 -4 -10 -6 0 -11 5 -11 10 0 6 2 10 4 10 3 0 8 -4 11 -10z
m-2140 -20 c3 -5 1 -10 -4 -10 -6 0 -11 5 -11 10 0 6 2 10 4 10 3 0 8 -4 11
-10z m623 -11 c17 -27 5 -40 -14 -15 -8 11 -14 23 -14 28 0 15 15 8 28 -13z
m3692 11 c0 -5 -4 -10 -10 -10 -5 0 -10 5 -10 10 0 6 5 10 10 10 6 0 10 -4 10
-10z m50 6 c0 -3 -4 -8 -10 -11 -5 -3 -10 -1 -10 4 0 6 5 11 10 11 6 0 10 -2
10 -4z m-3575 -16 c3 -5 2 -10 -4 -10 -5 0 -13 5 -16 10 -3 6 -2 10 4 10 5 0
13 -4 16 -10z m1245 0 c0 -5 -2 -10 -4 -10 -3 0 -8 5 -11 10 -3 6 -1 10 4 10
6 0 11 -4 11 -10z m-1446 -12 c14 -15 30 -49 28 -60 -1 -5 3 -8 8 -8 6 0 10
-6 10 -12 0 -7 -14 2 -31 20 -17 18 -28 36 -25 39 3 3 1 12 -5 20 -14 17 -2
17 15 1z m176 -8 c0 -5 -4 -10 -10 -10 -5 0 -10 5 -10 10 0 6 5 10 10 10 6 0
10 -4 10 -10z m-770 -15 c7 -9 8 -15 2 -15 -5 0 -12 7 -16 15 -3 8 -4 15 -2
15 2 0 9 -7 16 -15z m-440 -10 c0 -3 -17 -38 -38 -77 -20 -40 -43 -89 -51
-108 -37 -101 -101 -296 -112 -345 -7 -30 -17 -55 -24 -55 -18 0 -43 -52 -27
-57 6 -3 12 -10 12 -16 0 -8 -4 -7 -12 1 -19 19 -30 14 -23 -10 4 -15 3 -18
-3 -10 -11 15 -25 1 -75 -79 -92 -145 -157 -313 -172 -444 -3 -27 -8 -57 -11
-66 -8 -29 -17 -93 -16 -122 1 -24 -2 -27 -18 -22 -12 4 -20 2 -20 -4 0 -6 -7
-11 -15 -11 -18 0 -19 12 -3 28 6 6 9 14 6 18 -4 3 -14 -8 -23 -25 -8 -17 -20
-31 -26 -31 -11 0 6 -37 28 -58 7 -8 10 -19 6 -25 -5 -8 -9 -6 -11 6 -2 9 -8
17 -13 17 -5 0 -9 7 -9 15 0 21 -30 19 -31 -2 0 -11 -3 -13 -6 -5 -2 6 -11 12
-19 12 -18 0 -18 2 7 50 20 38 39 53 39 30 0 -5 5 -10 10 -10 6 0 10 6 10 14
0 8 5 16 12 18 8 3 5 12 -10 28 -12 13 -22 26 -22 29 0 3 -5 13 -10 21 -8 13
-11 12 -25 -5 -15 -19 -15 -19 -9 10 4 17 13 36 22 42 9 7 12 16 7 20 -4 5
-10 2 -12 -4 -5 -14 -33 -18 -33 -6 0 4 12 17 28 30 25 20 25 21 5 16 -13 -3
-23 -9 -23 -14 0 -5 -7 -9 -16 -9 -11 0 -14 -5 -10 -16 3 -8 0 -27 -8 -42 -13
-25 -19 -112 -8 -112 8 0 31 34 32 48 0 6 -7 12 -15 12 -8 0 -15 5 -15 10 0
18 19 10 36 -15 15 -23 15 -25 -11 -48 -27 -23 -28 -24 -15 -75 7 -32 17 -52
26 -52 8 0 14 -4 14 -10 0 -5 -7 -7 -15 -4 -18 7 -19 0 -5 -26 9 -16 -5 -49
-69 -177 -135 -265 -174 -494 -135 -773 10 -71 -11 -39 -62 95 -95 252 -123
393 -131 663 -8 279 21 497 99 721 76 221 185 399 358 584 158 169 382 326
590 413 57 24 70 27 70 19z m1104 -11 c9 -24 2 -26 -12 -4 -7 11 -8 20 -3 20
5 0 12 -7 15 -16z m46 -5 c0 -5 -4 -9 -10 -9 -5 0 -10 7 -10 16 0 8 5 12 10 9
6 -3 10 -10 10 -16z m-700 -9 c0 -5 -5 -10 -11 -10 -5 0 -7 5 -4 10 3 6 8 10
11 10 2 0 4 -4 4 -10z m596 -48 c-4 -3 -11 0 -16 8 -15 24 -11 33 6 15 9 -9
13 -19 10 -23z m124 28 c0 -5 -4 -10 -10 -10 -5 0 -10 5 -10 10 0 6 5 10 10
10 6 0 10 -4 10 -10z m-801 -29 c-6 -2 -18 4 -27 13 -15 15 -15 15 10 4 15 -7
23 -15 17 -17z m65 21 c3 -5 -1 -9 -9 -9 -8 0 -12 4 -9 9 3 4 7 8 9 8 2 0 6
-4 9 -8z m666 -22 c0 -5 -2 -10 -4 -10 -3 0 -8 5 -11 10 -3 6 -1 10 4 10 6 0
11 -4 11 -10z m-663 -20 c11 -16 10 -18 -1 -14 -15 6 -30 34 -18 34 4 0 13 -9
19 -20z m718 10 c3 -5 1 -10 -4 -10 -6 0 -11 5 -11 10 0 6 2 10 4 10 3 0 8 -4
11 -10z m1335 0 c0 -5 -5 -10 -11 -10 -5 0 -7 5 -4 10 3 6 8 10 11 10 2 0 4
-4 4 -10z m-2136 -6 c17 -7 22 -34 6 -34 -5 0 -10 6 -10 14 0 8 -6 17 -12 19
-7 3 -10 6 -6 6 3 1 13 -2 22 -5z m686 -14 c0 -5 -4 -10 -10 -10 -5 0 -10 5
-10 10 0 6 5 10 10 10 6 0 10 -4 10 -10z m50 -7 c0 -5 -16 -18 -35 -31 -19
-12 -35 -20 -35 -16 0 10 28 34 39 34 6 0 11 5 11 10 0 6 5 10 10 10 6 0 10
-3 10 -7z m-752 -28 c-3 -3 -9 2 -12 12 -6 14 -5 15 5 6 7 -7 10 -15 7 -18z
m3894 -122 c2 -68 0 -123 -4 -123 -4 0 -17 9 -28 20 l-20 20 0 -20 c0 -11 -4
-20 -10 -20 -5 0 -10 -8 -10 -17 0 -10 -5 -25 -10 -33 -24 -37 22 186 58 280
20 53 20 52 24 -107z m-3772 127 c0 -5 -5 -10 -11 -10 -5 0 -7 5 -4 10 3 6 8
10 11 10 2 0 4 -4 4 -10z m660 -4 c0 -3 -4 -8 -10 -11 -5 -3 -10 -1 -10 4 0 6
5 11 10 11 6 0 10 -2 10 -4z m1400 -16 c0 -5 -4 -10 -10 -10 -5 0 -10 5 -10
10 0 6 5 10 10 10 6 0 10 -4 10 -10z m-1430 -4 c0 -3 -4 -8 -10 -11 -5 -3 -10
-1 -10 4 0 6 5 11 10 11 6 0 10 -2 10 -4z m-640 -42 c0 -3 -7 -1 -15 6 -8 7
-15 17 -15 22 0 5 7 3 15 -6 8 -8 15 -18 15 -22z m605 26 c3 -5 1 -10 -4 -10
-6 0 -11 5 -11 10 0 6 2 10 4 10 3 0 8 -4 11 -10z m-710 -30 c-8 -9 -15 -22
-15 -28 0 -6 -7 -9 -16 -5 -14 5 -13 8 6 23 13 10 20 22 16 29 -5 7 -1 9 9 5
14 -6 14 -8 0 -24z m140 10 c3 -5 1 -10 -4 -10 -6 0 -11 5 -11 10 0 6 2 10 4
10 3 0 8 -4 11 -10z m5493 -39 l223 -38 52 -49 c175 -165 208 -200 217 -234 5
-19 12 -123 16 -230 l7 -195 -71 75 c-128 138 -144 160 -140 197 5 38 1 39
-31 17 -23 -17 -25 -15 -218 182 -287 292 -307 314 -292 314 8 -1 114 -18 237
-39z m-5596 5 c7 4 8 2 4 -5 -9 -13 -26 -5 -25 12 0 9 2 8 6 -1 2 -6 10 -9 15
-6z m53 4 c3 -5 1 -10 -4 -10 -6 0 -11 5 -11 10 0 6 2 10 4 10 3 0 8 -4 11
-10z m-75 -31 c0 -5 -4 -9 -10 -9 -5 0 -10 7 -10 16 0 8 5 12 10 9 6 -3 10
-10 10 -16z m124 6 c-4 -8 -8 -15 -10 -15 -2 0 -4 7 -4 15 0 8 4 15 10 15 5 0
7 -7 4 -15z m-177 -1 c-3 -3 -12 -4 -19 -1 -8 3 -5 6 6 6 11 1 17 -2 13 -5z
m103 -4 c0 -5 -5 -10 -11 -10 -5 0 -7 5 -4 10 3 6 8 10 11 10 2 0 4 -4 4 -10z
m30 -10 c0 -5 -2 -10 -4 -10 -3 0 -8 5 -11 10 -3 6 -1 10 4 10 6 0 11 -4 11
-10z m-130 -15 c-6 -8 -8 -20 -4 -27 5 -10 4 -10 -5 -2 -13 12 -5 44 11 44 6
0 5 -6 -2 -15z m50 -33 c-12 -4 -41 23 -34 31 3 3 14 -2 25 -11 11 -9 15 -18
9 -20z m30 28 c0 -5 -4 -10 -10 -10 -5 0 -10 5 -10 10 0 6 5 10 10 10 6 0 10
-4 10 -10z m80 6 c0 -3 -4 -8 -10 -11 -5 -3 -10 -1 -10 4 0 6 5 11 10 11 6 0
10 -2 10 -4z m-23 -32 c-3 -3 -12 -4 -19 -1 -8 3 -5 6 6 6 11 1 17 -2 13 -5z
m43 2 c0 -3 -4 -8 -10 -11 -5 -3 -10 -1 -10 4 0 6 5 11 10 11 6 0 10 -2 10 -4z
m-155 -16 c3 -5 -1 -10 -10 -10 -9 0 -13 5 -10 10 3 6 8 10 10 10 2 0 7 -4 10
-10z m-25 -36 c0 -3 -7 -1 -15 6 -8 7 -15 17 -15 22 0 5 7 3 15 -6 8 -8 15
-18 15 -22z m114 21 c-4 -8 -11 -15 -16 -15 -6 0 -5 6 2 15 7 8 14 15 16 15 2
0 1 -7 -2 -15z m26 -35 c0 -5 -7 -7 -15 -4 -8 4 -12 10 -9 15 6 11 24 2 24
-11z m-99 -7 c13 -17 13 -17 -6 -3 -11 8 -22 16 -24 17 -2 2 0 3 6 3 6 0 17
-8 24 -17z m79 -14 c0 -4 -9 -7 -19 -6 -11 0 -18 4 -16 7 6 9 35 8 35 -1z m20
-29 c0 -5 -5 -10 -11 -10 -5 0 -7 5 -4 10 3 6 8 10 11 10 2 0 4 -4 4 -10z
m-60 -6 c0 -8 -19 -13 -24 -6 -3 5 1 9 9 9 8 0 15 -2 15 -3z m100 -8 c0 -11
-19 -15 -25 -6 -3 5 1 10 9 10 9 0 16 -2 16 -4z m-40 -30 c0 -3 -4 -8 -10 -11
-5 -3 -10 -1 -10 4 0 6 5 11 10 11 6 0 10 -2 10 -4z m-730 -235 c0 -6 -4 -13
-10 -16 -5 -3 -10 1 -10 9 0 9 5 16 10 16 6 0 10 -4 10 -9z m35 -1 c3 -5 1
-10 -4 -10 -6 0 -11 5 -11 10 0 6 2 10 4 10 3 0 8 -4 11 -10z m4895 -30 c12
-16 19 -30 16 -30 -2 0 -14 14 -26 30 -12 17 -19 30 -16 30 2 0 14 -13 26 -30z
m-4960 0 c0 -5 -5 -10 -11 -10 -5 0 -7 5 -4 10 3 6 8 10 11 10 2 0 4 -4 4 -10z
m60 0 c0 -5 -4 -10 -10 -10 -5 0 -10 5 -10 10 0 6 5 10 10 10 6 0 10 -4 10
-10z m-60 -50 c0 -5 -2 -10 -4 -10 -3 0 -8 5 -11 10 -3 6 -1 10 4 10 6 0 11
-4 11 -10z m-30 -20 c0 -5 -4 -10 -10 -10 -5 0 -10 5 -10 10 0 6 5 10 10 10 6
0 10 -4 10 -10z m80 -22 c0 -4 -4 -10 -10 -13 -5 -3 -10 1 -10 9 0 9 -4 16
-10 16 -5 0 -10 5 -10 10 0 6 8 5 20 -2 11 -7 20 -16 20 -20z m-10 -58 c0 -5
-2 -10 -4 -10 -3 0 -8 5 -11 10 -3 6 -1 10 4 10 6 0 11 -4 11 -10z m4050 -417
c468 -612 602 -807 727 -1058 87 -174 212 -590 198 -662 -3 -18 -11 -33 -17
-33 -6 0 -8 9 -5 20 3 11 1 18 -4 14 -5 -3 -9 -12 -9 -20 0 -8 -5 -14 -11 -14
-6 0 -8 7 -5 16 3 9 2 12 -5 9 -6 -4 -20 1 -31 12 l-21 18 18 -32 c11 -18 23
-33 28 -33 4 0 6 -4 2 -10 -3 -5 -15 0 -26 11 -17 17 -23 18 -35 8 -9 -7 -13
-21 -11 -31 3 -10 1 -21 -4 -24 -5 -3 -9 -11 -8 -17 1 -7 -8 -34 -20 -61 -12
-27 -20 -55 -17 -63 3 -7 1 -13 -4 -13 -5 0 -12 -16 -16 -35 -8 -44 -24 -46
-24 -2 0 149 -41 464 -76 577 -70 232 -144 411 -237 571 -65 112 -126 209
-132 209 -4 0 52 -157 61 -171 2 -4 22 -79 43 -166 45 -182 88 -414 96 -523 3
-41 8 -97 11 -124 6 -47 5 -49 -13 -36 -17 14 -17 14 -2 -5 22 -27 30 -85 12
-85 -11 0 -11 -4 3 -17 15 -16 15 -17 -2 -24 -18 -6 -18 -7 -1 -14 20 -8 23
-35 5 -53 -8 -8 -15 -8 -24 -1 -8 7 -14 7 -18 0 -4 -6 -14 -7 -24 -4 -15 6
-15 5 -3 -10 16 -20 7 -35 -11 -19 -9 7 -18 6 -32 -4 -19 -13 -19 -14 2 -33
12 -10 22 -21 22 -25 0 -14 -24 -5 -41 16 -11 11 -22 18 -26 14 -5 -4 0 -12 9
-17 16 -9 16 -11 0 -28 -20 -21 -39 -16 -21 6 10 11 10 16 1 22 -9 5 -6 14 9
30 30 31 18 37 -14 6 -18 -19 -27 -22 -31 -13 -3 7 -4 4 -3 -7 1 -12 -3 -19
-11 -17 -8 1 -11 -1 -9 -5 6 -9 -120 -144 -173 -186 -44 -34 -164 -94 -208
-102 l-32 -7 56 79 c211 291 341 837 306 1279 -14 178 -52 378 -97 522 l-36
113 -52 -7 c-313 -36 -592 -115 -892 -251 -205 -92 -723 -381 -920 -513 -22
-14 -58 -37 -80 -49 l-40 -23 49 47 c129 122 641 515 946 726 234 162 519 367
700 504 25 19 50 34 55 34 6 0 84 -97 175 -216z m-2595 178 c101 -26 221 -85
305 -149 36 -27 81 -57 100 -67 19 -10 77 -52 128 -94 178 -144 227 -181 292
-217 l65 -35 -80 6 c-44 3 -115 13 -158 21 -44 9 -91 13 -105 10 -18 -4 -22
-3 -14 2 16 11 -108 38 -130 29 -7 -3 -1 -6 15 -6 29 -1 38 -20 10 -22 -10 -1
-2 -5 17 -8 19 -4 40 -3 47 1 6 5 14 5 17 -1 4 -5 -18 -15 -49 -22 -30 -7 -52
-16 -49 -21 3 -5 14 -6 24 -3 20 6 56 13 110 20 20 3 6 -5 -32 -17 -38 -11
-68 -25 -68 -30 0 -5 8 -7 18 -4 31 9 102 18 102 13 0 -6 -95 -37 -115 -37 -9
0 -13 -5 -10 -10 6 -9 27 -7 79 7 11 3 16 1 12 -5 -3 -6 -20 -13 -36 -17 -17
-4 -30 -11 -30 -16 0 -6 8 -8 18 -5 9 3 31 8 47 11 l30 5 -32 -12 c-50 -20
-51 -29 -3 -24 l45 5 -40 -19 c-22 -11 -50 -20 -62 -20 -13 0 -23 -4 -23 -9 0
-6 -12 -6 -29 -1 -18 5 -100 81 -222 205 -158 161 -204 202 -248 221 -30 14
-59 22 -65 20 -6 -2 -3 -5 6 -5 10 -1 21 -16 29 -38 6 -21 18 -44 26 -51 7 -7
13 -27 13 -44 0 -18 8 -37 20 -46 11 -10 21 -31 22 -49 1 -17 5 -30 9 -27 4 2
14 -9 22 -26 9 -16 13 -30 10 -30 -3 0 -76 30 -162 66 -335 143 -551 193 -889
207 l-73 3 7 -41 c9 -58 43 -163 69 -217 13 -27 19 -50 15 -53 -7 -4 -257 89
-267 99 -6 6 86 128 134 180 52 56 219 182 331 250 80 49 181 90 277 114 121
31 119 31 285 27 119 -2 174 -7 235 -24z m-1895 -150 c0 -6 -4 -13 -10 -16 -5
-3 -10 1 -10 9 0 9 5 16 10 16 6 0 10 -4 10 -9z m40 -40 c0 -12 -20 -25 -27
-18 -7 7 6 27 18 27 5 0 9 -4 9 -9z m20 -25 c0 -2 3 -12 7 -22 5 -14 3 -16
-12 -10 -11 4 -22 2 -26 -6 -4 -7 -11 -10 -14 -6 -9 9 17 48 32 48 7 0 13 -2
13 -4z m-56 -71 c-4 -8 -10 -15 -15 -15 -5 0 -9 7 -9 15 0 8 7 15 15 15 9 0
12 -6 9 -15z m5570 -22 c22 -20 100 -92 172 -160 72 -67 144 -133 159 -144 40
-32 221 -235 270 -304 59 -82 116 -185 109 -196 -3 -5 -1 -9 4 -9 21 0 99
-193 108 -267 1 -12 5 -26 8 -31 19 -32 17 -390 -2 -378 -4 2 -7 -8 -8 -23 -2
-49 -14 -82 -27 -75 -9 5 -9 4 1 -7 17 -19 15 -39 -5 -40 -11 0 -13 -3 -5 -6
6 -2 12 -9 12 -15 0 -6 -7 -7 -16 -4 -14 5 -15 4 -5 -8 6 -7 8 -21 5 -30 -6
-15 -8 -15 -20 1 -13 17 -14 17 -7 -1 5 -16 3 -18 -11 -13 -10 4 -15 3 -11 -3
3 -6 -3 -10 -13 -10 -11 0 -25 -7 -32 -15 -7 -8 -9 -15 -4 -15 13 0 -15 -24
-31 -26 -13 -2 -17 8 -14 32 0 4 -3 10 -8 13 -6 3 -36 44 -68 90 l-59 84 12
69 c18 106 15 300 -6 399 -11 46 -19 87 -20 92 -1 4 -10 28 -22 53 -11 26 -20
50 -20 55 0 10 -94 163 -137 221 -19 26 -99 109 -178 185 l-143 139 -16 164
c-9 91 -18 177 -21 193 -2 15 -2 27 2 27 3 0 24 -17 47 -37z m-5474 -14 c0 -5
-7 -9 -15 -9 -9 0 -12 6 -9 15 6 15 24 11 24 -6z m46 -3 c2 -22 0 -23 -17 -8
-19 16 -17 32 4 32 7 0 13 -11 13 -24z m-31 -26 c3 -5 1 -10 -4 -10 -6 0 -11
5 -11 10 0 6 2 10 4 10 3 0 8 -4 11 -10z m-79 -72 c-13 -18 -16 -19 -16 -5 0
9 5 17 10 17 6 0 11 10 11 23 1 16 3 17 6 5 2 -10 -3 -28 -11 -40z m4426 -135
c-66 -86 -207 -226 -322 -319 -117 -94 -225 -167 -494 -334 -139 -87 -293
-192 -350 -238 -389 -321 -601 -674 -620 -1035 -5 -86 -11 -101 -30 -74 -19
26 -34 21 -30 -10 2 -16 -4 -3 -13 27 -12 41 -16 104 -17 250 -1 224 13 301
84 483 59 152 137 271 263 403 221 231 465 387 892 569 282 121 433 197 629
318 33 21 61 37 63 37 2 0 -23 -35 -55 -77z m-1992 -67 c0 -2 -7 -6 -15 -10
-8 -3 -15 -1 -15 4 0 6 7 10 15 10 8 0 15 -2 15 -4z m-1851 -48 c36 -121 149
-304 264 -428 128 -138 156 -173 167 -206 34 -103 177 -307 265 -379 25 -21
45 -40 45 -44 0 -10 -240 7 -315 23 -38 8 -74 11 -79 6 -4 -4 13 -41 39 -82
124 -192 290 -367 335 -353 13 4 19 -2 24 -21 4 -14 5 -29 2 -32 -9 -9 -230
103 -310 158 -257 173 -440 451 -512 777 -20 92 -23 339 -5 418 26 112 54 205
61 205 4 0 13 -19 19 -42z m1911 -32 c0 -3 -4 -8 -10 -11 -5 -3 -10 -1 -10 4
0 6 5 11 10 11 6 0 10 -2 10 -4z m-40 -16 c0 -5 -4 -10 -10 -10 -5 0 -10 5
-10 10 0 6 5 10 10 10 6 0 10 -4 10 -10z m-36 -9 c7 -11 -64 -30 -84 -22 -9 3
1 10 25 17 50 16 53 16 59 5z m1676 -406 c0 -21 -153 -136 -374 -282 -302
-199 -415 -293 -539 -446 -81 -100 -177 -239 -177 -256 0 -31 -21 -3 -47 61
-15 40 -29 76 -31 80 -2 5 1 8 7 8 11 0 58 -99 53 -112 -1 -5 3 -8 8 -8 12 0
13 23 1 35 -4 6 -17 35 -27 65 -10 30 -22 57 -25 60 -3 3 -9 16 -13 30 -7 25
-7 25 11 -2 10 -16 21 -28 25 -28 11 0 10 2 -8 39 -8 17 -13 37 -11 44 3 7 6
5 6 -5 1 -10 8 -18 17 -18 8 0 12 5 9 10 -3 6 1 10 9 10 9 0 16 -4 16 -10 0
-5 5 -10 10 -10 6 0 5 8 -2 20 -11 17 -10 22 2 30 8 5 11 12 8 15 -4 4 -17 -2
-29 -14 -12 -11 -25 -18 -28 -15 -3 4 0 9 7 11 6 3 12 9 12 15 0 5 8 17 17 26
12 12 18 13 21 4 2 -6 8 -12 14 -12 5 0 6 10 2 22 -6 21 -5 22 11 8 17 -14 18
-13 11 15 -7 29 -7 29 9 10 16 -19 16 -19 11 7 -4 15 -2 30 4 33 6 4 7 -1 3
-11 -4 -12 -3 -15 5 -10 7 4 12 19 13 34 0 22 2 23 8 9 6 -17 10 -15 33 13 17
20 31 29 39 24 8 -4 10 -3 5 5 -9 14 78 118 107 127 12 4 34 15 49 25 14 11
32 19 39 19 7 0 20 6 28 14 9 7 45 29 81 48 36 20 88 49 116 65 28 17 68 37
90 44 21 8 45 19 51 26 7 6 44 23 83 38 38 15 70 30 70 34 0 4 19 12 43 20 23
7 58 21 77 31 44 22 70 24 70 5z m-1775 -276 c118 -20 189 -44 180 -59 -11
-17 -291 -80 -357 -80 -10 0 -42 39 -82 99 -36 54 -66 101 -66 104 0 2 46 -6
103 -19 56 -13 156 -33 222 -45z m-317 -122 l27 -11 -34 -4 c-32 -3 -198 15
-211 23 -11 7 -1 96 12 113 11 13 11 15 -2 7 -8 -4 -12 -4 -7 0 4 5 -1 17 -10
28 -10 11 31 -17 90 -62 60 -45 121 -87 135 -94z m1862 -251 c0 -3 -4 -8 -10
-11 -5 -3 -10 -1 -10 4 0 6 5 11 10 11 6 0 10 -2 10 -4z m-60 -98 c0 -5 -9 -3
-20 4 -11 7 -20 16 -20 20 0 5 9 3 20 -4 11 -7 20 -16 20 -20z m140 -8 c0 -5
-2 -10 -4 -10 -3 0 -8 5 -11 10 -3 6 -1 10 4 10 6 0 11 -4 11 -10z m-210 -15
c11 -13 10 -14 -4 -9 -9 3 -16 10 -16 15 0 13 6 11 20 -6z m100 -5 c0 -5 -2
-10 -4 -10 -3 0 -8 5 -11 10 -3 6 -1 10 4 10 6 0 11 -4 11 -10z m-124 -15 c12
-12 13 -15 2 -15 -16 0 -48 -79 -84 -205 -42 -150 -75 -239 -95 -257 -19 -16
-22 -15 -59 26 -22 24 -56 74 -75 112 l-35 69 72 71 c64 62 245 214 256 214 2
0 10 -7 18 -15z m209 5 c3 -5 1 -10 -4 -10 -6 0 -11 5 -11 10 0 6 2 10 4 10 3
0 8 -4 11 -10z m1471 -25 c-5 -24 -3 -35 5 -35 7 0 9 -3 6 -6 -10 -11 -38 17
-30 30 8 11 9 16 12 36 0 6 4 10 7 10 3 0 3 -16 0 -35z m-76 -42 c8 -6 12 -15
8 -18 -8 -8 -38 18 -38 33 0 6 -7 13 -16 16 -8 3 -12 11 -9 17 5 6 13 2 23
-13 9 -13 23 -28 32 -35z m45 47 c3 -5 1 -10 -4 -10 -6 0 -11 5 -11 10 0 6 2
10 4 10 3 0 8 -4 11 -10z m-1510 -20 c3 -5 1 -10 -4 -10 -6 0 -11 5 -11 10 0
6 2 10 4 10 3 0 8 -4 11 -10z m1500 -14 c8 -7 11 -16 8 -19 -5 -6 -33 17 -33
27 0 10 11 7 25 -8z m-62 -37 c26 -30 15 -34 -13 -4 -13 14 -19 25 -14 25 5 0
18 -9 27 -21z m-2363 1 c0 -5 -4 -10 -10 -10 -5 0 -10 5 -10 10 0 6 5 10 10
10 6 0 10 -4 10 -10z m806 -28 c-6 -5 -36 23 -36 34 0 4 9 -1 20 -11 11 -10
18 -20 16 -23z m1654 28 c0 -5 -5 -10 -11 -10 -5 0 -7 5 -4 10 3 6 8 10 11 10
2 0 4 -4 4 -10z m-1520 -10 c0 -5 -2 -10 -4 -10 -3 0 -8 5 -11 10 -3 6 -1 10
4 10 6 0 11 -4 11 -10z m1485 0 c3 -5 1 -10 -4 -10 -6 0 -11 5 -11 10 0 6 2
10 4 10 3 0 8 -4 11 -10z m52 -12 c-3 -8 -6 -5 -6 6 -1 11 2 17 5 13 3 -3 4
-12 1 -19z m-1617 8 c0 -3 -4 -8 -10 -11 -5 -3 -10 -1 -10 4 0 6 5 11 10 11 6
0 10 -2 10 -4z m-826 -65 c15 -33 26 -65 23 -73 -4 -9 -8 -6 -12 10 -4 12 -11
22 -15 22 -5 0 -11 13 -15 30 -4 16 -11 32 -16 35 -11 7 -12 35 -1 35 4 0 20
-27 36 -59z m2306 49 c0 -5 -4 -10 -10 -10 -5 0 -10 5 -10 10 0 6 5 10 10 10
6 0 10 -4 10 -10z m-1410 -4 c0 -3 -4 -8 -10 -11 -5 -3 -10 -1 -10 4 0 6 5 11
10 11 6 0 10 -2 10 -4z m1530 -6 c0 -5 -4 -10 -10 -10 -5 0 -10 5 -10 10 0 6
5 10 10 10 6 0 10 -4 10 -10z m885 -4 c7 3 16 1 20 -5 3 -6 1 -11 -5 -11 -6 0
-8 -5 -4 -11 5 -8 1 -8 -14 0 -11 6 -23 18 -26 28 -6 14 -4 15 5 6 6 -6 17 -9
24 -7z m-1357 -17 c19 -29 6 -37 -18 -11 -23 25 -25 32 -7 32 7 0 18 -9 25
-21z m22 11 c0 -5 -4 -10 -10 -10 -5 0 -10 5 -10 10 0 6 5 10 10 10 6 0 10 -4
10 -10z m-2030 -16 c0 -8 -5 -12 -10 -9 -6 4 -8 11 -5 16 9 14 15 11 15 -7z
m780 -5 c0 -6 -4 -7 -10 -4 -5 3 -10 11 -10 16 0 6 5 7 10 4 6 -3 10 -11 10
-16z m1163 -11 c4 -10 8 -9 16 2 8 12 14 10 35 -15 14 -16 23 -32 20 -37 -6
-10 -34 16 -34 31 0 6 -5 11 -11 11 -6 0 -8 -7 -5 -17 4 -9 1 -20 -6 -24 -7
-4 -9 -11 -5 -16 5 -4 12 -1 17 7 5 8 12 11 16 8 3 -4 -1 -15 -11 -24 -15 -16
-18 -16 -33 -1 -15 16 -15 18 3 32 13 9 15 14 7 15 -13 0 -42 24 -42 34 0 12
28 6 33 -6z m-1133 -8 c0 -5 -4 -10 -10 -10 -5 0 -10 5 -10 10 0 6 5 10 10 10
6 0 10 -4 10 -10z m-830 -35 c0 -5 -5 -3 -10 5 -5 8 -10 20 -10 25 0 6 5 3 10
-5 5 -8 10 -19 10 -25z m59 -15 c33 -66 21 -74 -12 -9 -29 56 -31 59 -19 59 4
0 18 -23 31 -50z m911 46 c0 -3 -4 -8 -10 -11 -5 -3 -10 -1 -10 4 0 6 5 11 10
11 6 0 10 -2 10 -4z m1420 -6 c0 -5 -2 -10 -4 -10 -3 0 -8 5 -11 10 -3 6 -1
10 4 10 6 0 11 -4 11 -10z m-1484 -25 c-1 -22 -3 -23 -16 -9 -13 13 -13 16 0
24 8 5 16 10 16 10 1 0 1 -11 0 -25z m1509 5 c3 -5 1 -10 -4 -10 -6 0 -11 5
-11 10 0 6 2 10 4 10 3 0 8 -4 11 -10z m-1555 -10 c0 -5 -2 -10 -4 -10 -3 0
-8 5 -11 10 -3 6 -1 10 4 10 6 0 11 -4 11 -10z m1078 -38 c-13 -6 -39 19 -32
30 3 5 14 1 24 -9 9 -10 13 -20 8 -21z m-98 18 c0 -5 -5 -10 -11 -10 -5 0 -7
5 -4 10 3 6 8 10 11 10 2 0 4 -4 4 -10z m510 6 c0 -3 -4 -8 -10 -11 -5 -3 -10
-1 -10 4 0 6 5 11 10 11 6 0 10 -2 10 -4z m-1460 -22 c0 -8 -5 -12 -10 -9 -6
4 -8 11 -5 16 9 14 15 11 15 -7z m1140 7 c0 -6 -4 -12 -9 -15 -4 -3 -6 -17 -3
-31 2 -15 0 -25 -7 -25 -6 0 -11 7 -11 15 0 8 -4 15 -10 15 -5 0 -10 5 -10 10
0 6 7 10 15 10 8 0 15 7 15 15 0 8 5 15 10 15 6 0 10 -4 10 -9z m465 -1 c3 -5
1 -10 -4 -10 -6 0 -11 5 -11 10 0 6 2 10 4 10 3 0 8 -4 11 -10z m-1645 -10 c0
-5 -2 -10 -4 -10 -3 0 -8 5 -11 10 -3 6 -1 10 4 10 6 0 11 -4 11 -10z m1020
-4 c0 -3 -4 -8 -10 -11 -5 -3 -10 -1 -10 4 0 6 5 11 10 11 6 0 10 -2 10 -4z
m49 -10 c8 -10 9 -16 1 -21 -5 -3 -10 0 -10 9 0 8 -6 17 -12 19 -8 4 -9 6 -2
6 6 1 17 -5 23 -13z m-1859 -40 c0 -5 -7 -1 -15 10 -8 10 -14 24 -14 29 0 6 6
1 14 -9 8 -11 15 -24 15 -30z m1905 34 c-3 -5 -10 -10 -16 -10 -5 0 -9 5 -9
10 0 6 7 10 16 10 8 0 12 -4 9 -10z m465 0 c0 -5 -4 -10 -10 -10 -5 0 -10 5
-10 10 0 6 5 10 10 10 6 0 10 -4 10 -10z m-640 -10 c0 -5 -5 -10 -11 -10 -5 0
-7 5 -4 10 3 6 8 10 11 10 2 0 4 -4 4 -10z m100 0 c0 -5 -4 -10 -10 -10 -5 0
-10 5 -10 10 0 6 5 10 10 10 6 0 10 -4 10 -10z m-1875 -10 c3 -5 1 -10 -4 -10
-6 0 -11 5 -11 10 0 6 2 10 4 10 3 0 8 -4 11 -10z m745 0 c0 -5 -4 -10 -10
-10 -5 0 -10 5 -10 10 0 6 5 10 10 10 6 0 10 -4 10 -10z m1100 -10 c0 -5 -5
-10 -11 -10 -5 0 -7 5 -4 10 3 6 8 10 11 10 2 0 4 -4 4 -10z m137 -8 c11 -19
7 -72 -6 -72 -16 0 -20 14 -10 27 9 10 7 19 -5 38 -12 18 -13 25 -4 25 7 0 18
-8 25 -18z m-87 -2 c0 -5 -4 -10 -10 -10 -5 0 -10 5 -10 10 0 6 5 10 10 10 6
0 10 -4 10 -10z m40 0 c0 -5 -4 -10 -10 -10 -5 0 -10 5 -10 10 0 6 5 10 10 10
6 0 10 -4 10 -10z m-1900 -47 c0 -20 -16 -8 -23 17 -4 17 -3 19 9 9 8 -6 14
-18 14 -26z m730 21 c0 -8 -4 -12 -10 -9 -5 3 -10 10 -10 16 0 5 5 9 10 9 6 0
10 -7 10 -16z m1105 7 c3 -5 1 -12 -5 -16 -5 -3 -10 1 -10 9 0 18 6 21 15 7z
m-45 -5 c0 -3 -4 -8 -10 -11 -5 -3 -10 -1 -10 4 0 6 5 11 10 11 6 0 10 -2 10
-4z m90 -6 c0 -5 -4 -10 -10 -10 -5 0 -10 -7 -10 -15 0 -8 7 -15 15 -15 8 0
15 -4 15 -10 0 -5 -7 -10 -15 -10 -8 0 -15 5 -15 10 0 6 -4 10 -10 10 -5 0
-10 -8 -10 -17 0 -13 -3 -14 -11 -6 -8 8 -6 17 10 34 11 13 21 26 21 31 0 4 5
8 10 8 6 0 10 -4 10 -10z m37 -4 c-17 -13 -17 -15 -1 -30 23 -23 11 -32 -14
-10 -17 14 -18 20 -9 35 7 11 19 19 27 19 12 -1 12 -3 -3 -14z m-107 -22 c0
-8 -4 -12 -10 -9 -5 3 -10 10 -10 16 0 5 5 9 10 9 6 0 10 -7 10 -16z m-1090
-4 c0 -5 -5 -10 -11 -10 -5 0 -7 5 -4 10 3 6 8 10 11 10 2 0 4 -4 4 -10z
m1050 0 c0 -5 -4 -10 -10 -10 -5 0 -10 5 -10 10 0 6 5 10 10 10 6 0 10 -4 10
-10z m24 -31 c-3 -5 -10 -7 -15 -3 -5 3 -7 10 -3 15 3 5 10 7 15 3 5 -3 7 -10
3 -15z m26 -19 c0 -5 -4 -10 -10 -10 -5 0 -10 5 -10 10 0 6 5 10 10 10 6 0 10
-4 10 -10z m45 0 c3 -5 1 -10 -4 -10 -6 0 -11 5 -11 10 0 6 2 10 4 10 3 0 8
-4 11 -10z m45 5 c0 -5 -21 -32 -62 -79 -15 -17 -28 -25 -28 -18 0 6 4 12 9
12 5 0 22 20 38 45 24 39 43 56 43 40z m-120 -19 c0 -3 -4 -8 -10 -11 -5 -3
-10 -1 -10 4 0 6 5 11 10 11 6 0 10 -2 10 -4z m55 -16 c3 -5 -1 -10 -10 -10
-9 0 -13 5 -10 10 3 6 8 10 10 10 2 0 7 -4 10 -10z m-35 -4 c0 -3 -4 -8 -10
-11 -5 -3 -10 -1 -10 4 0 6 5 11 10 11 6 0 10 -2 10 -4z m10 -26 c0 -5 -5 -10
-11 -10 -5 0 -7 5 -4 10 3 6 8 10 11 10 2 0 4 -4 4 -10z m-7 -64 c-3 -4 -9 -2
-14 5 -13 22 -11 31 5 17 8 -7 12 -17 9 -22z m-37 -21 c-11 -8 -24 -15 -30
-15 -5 0 -1 7 10 15 10 8 24 14 29 14 6 0 1 -6 -9 -14z m1430 -262 c-68 -82
-204 -217 -297 -296 -114 -96 -255 -179 -439 -259 -157 -69 -508 -158 -620
-158 -115 0 25 -46 214 -71 129 -17 390 -7 489 19 97 25 205 66 277 105 56 30
54 27 -30 -42 -48 -39 -148 -102 -157 -99 -8 2 -73 -19 -212 -66 -196 -67
-476 -105 -646 -86 -174 18 -244 37 -365 95 -129 62 -153 78 -225 151 -128
128 -189 285 -190 485 l0 116 -32 -58 c-26 -47 -54 -121 -57 -151 -1 -3 -4
-10 -8 -14 -5 -4 -9 -23 -9 -43 -1 -20 -3 -28 -6 -18 -2 9 -11 17 -20 17 -13
0 -13 -3 -3 -15 7 -8 9 -15 6 -15 -4 0 -4 -6 1 -12 14 -22 10 -168 -5 -168 -7
0 -12 11 -11 28 1 15 -3 46 -9 70 -8 34 -7 42 4 42 8 0 14 5 14 11 0 6 -7 9
-15 5 -8 -3 -15 0 -15 6 0 6 -3 8 -7 5 -9 -10 -9 -67 0 -67 5 0 6 -4 2 -9 -3
-5 0 -13 6 -17 8 -5 7 -9 -2 -15 -8 -4 -18 -1 -26 9 -13 15 -13 15 -8 -4 4
-15 0 -24 -11 -28 -11 -4 -15 -2 -11 8 3 8 1 17 -6 20 -9 5 -9 7 1 12 6 3 10
10 6 15 -3 5 1 9 9 9 8 0 17 9 20 20 3 11 2 20 -1 20 -7 -1 -110 -129 -127
-159 -6 -10 -18 -25 -28 -35 -9 -10 -14 -22 -11 -28 4 -7 2 -8 -5 -4 -13 8
-98 -81 -93 -97 1 -5 -1 -6 -6 -3 -5 3 -19 -2 -31 -11 -19 -12 -20 -17 -10
-25 11 -8 10 -9 -3 -5 -10 4 -32 -6 -53 -23 -19 -15 -58 -43 -85 -60 -28 -18
-50 -36 -50 -41 0 -5 -3 -8 -7 -7 -15 4 -53 -13 -53 -23 0 -6 -4 -8 -8 -5 -5
3 -31 -6 -59 -19 -28 -13 -84 -31 -125 -40 -97 -23 -101 -24 -45 -21 26 2 50
6 54 10 3 3 19 6 34 6 15 0 31 5 34 10 3 6 12 10 18 10 17 -1 -24 -30 -42 -30
-9 0 -25 -8 -36 -16 -20 -16 -19 -16 4 -9 18 5 22 4 16 -6 -6 -9 3 -11 41 -7
27 3 41 4 32 1 -10 -2 -18 -8 -18 -13 0 -5 15 -4 32 1 47 13 48 13 48 -26 0
-19 4 -35 9 -35 15 0 22 18 9 22 -7 3 3 12 21 21 19 10 35 16 36 15 1 -2 5
-15 9 -30 5 -21 3 -28 -9 -28 -8 0 -15 7 -15 15 0 8 -5 15 -11 15 -6 0 -8 -9
-4 -20 5 -16 2 -20 -17 -21 -13 -1 -36 -3 -53 -6 -41 -7 -53 -6 -105 6 -67 14
-220 72 -220 82 0 5 -13 9 -29 9 -53 0 -43 17 32 55 272 138 452 276 796 610
137 134 331 348 331 366 0 5 5 9 10 9 6 0 10 -9 10 -21 0 -33 57 -165 97 -227
20 -32 73 -94 118 -138 l80 -82 88 -7 c103 -9 316 7 492 36 452 76 1062 317
1330 525 17 13 31 24 33 24 1 0 -26 -35 -62 -77z m-4715 1 c165 -28 293 -80
444 -180 86 -57 193 -150 160 -139 -11 4 -38 10 -60 15 -22 4 -73 16 -114 25
-132 29 -264 45 -368 45 -57 0 -103 -1 -103 -3 0 -1 32 -65 70 -141 72 -141
107 -198 168 -275 40 -49 38 -49 -76 21 -178 109 -379 186 -554 214 -137 21
-132 19 -102 49 14 14 29 25 33 25 4 0 59 20 122 45 63 25 126 45 141 45 52 0
38 19 -28 40 -36 11 -77 20 -90 20 -29 0 -52 -35 -28 -44 9 -3 21 -3 27 0 8 5
9 4 2 -3 -5 -5 -41 -15 -80 -22 -159 -30 -567 -185 -686 -262 -34 -22 -63 -39
-65 -37 -1 2 35 49 80 104 165 199 378 345 616 422 155 50 330 63 491 36z
m-574 -390 c-3 -3 -12 -4 -19 -1 -8 3 -5 6 6 6 11 1 17 -2 13 -5z m2844 -167
c-13 -13 -26 -3 -16 12 3 6 11 8 17 5 6 -4 6 -10 -1 -17z m89 8 c0 -8 -2 -15
-4 -15 -2 0 -11 -3 -20 -6 -10 -4 -16 -1 -16 9 0 14 13 24 33 26 4 1 7 -6 7
-14z m-51 -22 c-1 -5 0 -10 1 -13 9 -23 9 -60 0 -60 -6 0 -37 -12 -68 -27 -31
-15 -64 -28 -72 -29 -8 -1 -26 -4 -39 -9 -16 -5 -21 -4 -17 4 4 6 16 11 26 11
10 0 22 5 25 10 3 6 14 10 23 10 29 0 47 17 36 32 -14 18 -15 56 -2 64 7 5 9
1 5 -9 -3 -9 -2 -19 4 -23 6 -3 8 -12 5 -20 -7 -18 13 -29 27 -15 7 7 7 11 1
11 -6 0 -11 14 -12 31 0 19 4 29 11 26 12 -4 13 -7 16 -43 0 -8 6 -12 11 -9 6
3 8 19 5 36 -3 16 -1 29 5 29 5 0 9 -3 9 -7z m50 -45 c-2 -26 1 -43 9 -46 7
-2 10 2 6 12 -3 9 -1 16 5 16 6 0 12 -3 12 -7 1 -5 3 -17 4 -28 2 -11 6 -29 9
-40 5 -15 4 -15 -5 3 -7 12 -16 22 -21 22 -4 0 -3 -9 4 -20 11 -17 10 -22 -2
-30 -11 -7 -17 -2 -26 18 -6 15 -9 33 -6 40 2 6 -3 12 -11 12 -8 0 -18 -7 -21
-16 -4 -10 -13 -13 -26 -9 -11 4 -20 2 -20 -4 0 -6 -4 -11 -10 -11 -5 0 -10 6
-10 14 0 8 15 17 35 20 19 4 35 11 35 16 0 6 7 10 15 10 18 0 20 17 4 22 -7 2
-9 13 -5 26 12 37 28 25 25 -20z m33 0 c-7 -7 -12 -8 -12 -2 0 14 12 26 19 19
2 -3 -1 -11 -7 -17z m-1703 -44 c14 -12 -19 -1 -35 12 -18 14 -18 14 6 3 14
-6 27 -13 29 -15z m1503 4 c-7 -7 -12 -8 -12 -2 0 14 12 26 19 19 2 -3 -1 -11
-7 -17z m-1432 -33 c14 -8 21 -14 15 -14 -5 0 -21 6 -35 14 -14 8 -20 14 -15
14 6 0 21 -6 35 -14z m1461 -25 c-25 -22 -41 -26 -41 -10 0 6 7 10 15 10 8 0
15 5 15 10 0 6 8 10 18 10 14 -1 13 -4 -7 -20z m123 4 c3 -8 1 -24 -4 -34 -13
-24 -13 -30 0 -30 6 0 10 7 10 15 0 9 6 12 17 8 14 -6 14 -8 -5 -24 -12 -9
-22 -21 -22 -26 0 -4 -14 -23 -30 -42 -17 -18 -30 -38 -30 -43 0 -6 -7 -8 -15
-4 -8 3 -14 2 -13 -2 2 -12 -14 -42 -23 -42 -5 0 -9 20 -9 45 0 38 3 45 20 45
11 0 20 4 20 9 0 5 -9 7 -20 4 -14 -4 -20 0 -20 12 0 12 6 16 19 12 12 -3 22
1 25 9 3 8 14 14 25 14 13 0 19 5 15 14 -3 8 -1 17 5 21 6 3 11 9 11 13 0 11
-39 12 -45 1 -4 -5 -1 -9 4 -9 6 0 11 -7 11 -15 0 -8 -9 -15 -20 -15 -11 0
-20 -4 -20 -10 0 -13 -27 -13 -35 0 -3 6 6 15 20 20 23 9 25 13 15 25 -7 9
-11 18 -8 20 3 4 65 20 89 24 4 1 10 -6 13 -15z m-182 -23 c5 -13 48 -24 48
-12 0 6 7 11 15 11 23 0 17 -14 -12 -27 -19 -9 -29 -10 -34 -2 -5 8 -8 8 -13
0 -12 -19 -23 -12 -23 14 0 24 12 34 19 16z m-32 -11 c0 -5 -4 -10 -10 -10 -5
0 -10 5 -10 10 0 6 5 10 10 10 6 0 10 -4 10 -10z m-1751 -26 c14 -12 -19 -1
-35 12 -18 14 -18 14 6 3 14 -6 27 -13 29 -15z m1741 6 c5 0 8 -12 6 -27 -1
-20 -7 -27 -19 -25 -9 2 -17 -2 -17 -8 0 -5 7 -10 16 -10 10 0 14 -6 10 -15
-3 -8 0 -15 6 -15 7 0 6 -5 -2 -15 -7 -8 -8 -15 -3 -15 5 0 10 -14 10 -30 0
-17 -5 -29 -10 -27 -10 3 -13 12 -21 76 -6 40 -13 48 -28 33 -16 -16 -28 -15
-28 3 0 8 9 15 20 15 15 0 20 7 20 26 0 22 2 25 15 14 21 -17 19 -5 -2 16 -17
17 -17 18 0 11 10 -4 22 -7 27 -7z m-1715 -10 c-3 -5 -1 -10 4 -10 18 0 26 5
23 13 -1 5 2 6 7 2 6 -3 7 -13 4 -21 -5 -13 1 -14 33 -8 22 4 44 13 49 21 9
11 15 8 33 -17 13 -17 20 -36 16 -42 -4 -6 -3 -8 3 -5 6 4 18 -4 27 -17 l16
-25 -53 19 c-65 22 -148 59 -164 72 -12 9 -9 28 3 28 3 0 2 -4 -1 -10z m1801
-96 c-1 -73 -4 -85 -22 -98 -29 -20 -76 -24 -82 -7 -3 10 1 12 17 8 11 -3 24
-1 27 5 3 5 12 7 20 4 8 -3 14 1 14 8 0 9 -7 12 -18 9 -15 -4 -19 1 -20 26 0
21 4 31 14 31 11 0 13 -6 9 -20 -3 -11 -2 -20 4 -20 5 0 10 27 10 60 0 33 -4
60 -8 60 -13 0 -20 -39 -8 -43 11 -3 1 -27 -12 -27 -5 0 -11 11 -13 25 -3 14
-2 25 2 25 5 0 6 9 3 19 -4 16 1 19 29 19 l34 0 0 -84z m-231 26 c3 -5 1 -10
-4 -10 -6 0 -11 5 -11 10 0 6 2 10 4 10 3 0 8 -4 11 -10z m55 1 c0 -6 -4 -13
-10 -16 -5 -3 -10 1 -10 9 0 9 5 16 10 16 6 0 10 -4 10 -9z m50 -26 c0 -8 -7
-15 -15 -15 -16 0 -20 12 -8 23 11 12 23 8 23 -8z m-100 -14 c0 -5 7 -17 16
-26 13 -12 14 -19 5 -28 -8 -8 -11 -7 -11 7 0 13 -5 16 -22 11 -21 -5 -21 -5
-6 8 13 10 15 16 6 25 -9 9 -9 12 0 12 7 0 12 -4 12 -9z m55 -1 c3 -5 -1 -10
-9 -10 -9 0 -16 5 -16 10 0 6 4 10 9 10 6 0 13 -4 16 -10z m-95 -20 c0 -5 -5
-10 -11 -10 -5 0 -7 5 -4 10 3 6 8 10 11 10 2 0 4 -4 4 -10z m137 -22 c-9 -6
-9 -8 1 -8 6 0 12 -7 12 -15 0 -8 -7 -15 -15 -15 -10 0 -15 10 -15 28 0 33 10
48 21 30 4 -7 3 -16 -4 -20z m-32 12 c-3 -5 -10 -10 -16 -10 -5 0 -9 5 -9 10
0 6 7 10 16 10 8 0 12 -4 9 -10z m-145 -20 c0 -5 -4 -10 -10 -10 -5 0 -10 5
-10 10 0 6 5 10 10 10 6 0 10 -4 10 -10z m40 0 c0 -5 -4 -10 -10 -10 -5 0 -10
5 -10 10 0 6 5 10 10 10 6 0 10 -4 10 -10z m107 -30 c0 -18 -6 -30 -14 -30 -7
0 -13 -4 -13 -10 0 -5 -7 -10 -15 -10 -22 0 -18 17 6 30 11 7 18 17 15 25 -2
7 -2 16 1 19 13 13 20 5 20 -24z m-67 16 c0 -3 -4 -8 -10 -11 -5 -3 -10 -1
-10 4 0 6 5 11 10 11 6 0 10 -2 10 -4z m-82 -36 c0 -16 -3 -32 -7 -35 -5 -2
-8 11 -8 30 1 43 14 47 15 5z m42 -10 c0 -22 -4 -40 -8 -40 -10 0 -14 59 -6
72 10 16 14 7 14 -32z m70 30 c0 -5 -4 -10 -10 -10 -5 0 -10 5 -10 10 0 6 5
10 10 10 6 0 10 -4 10 -10z m-32 -41 c0 -19 -4 -29 -11 -26 -6 2 -11 13 -10
25 1 30 2 32 11 32 5 0 9 -14 10 -31z m112 16 c0 -8 -7 -15 -15 -15 -8 0 -15
7 -15 15 0 8 7 15 15 15 8 0 15 -7 15 -15z m-230 -5 c0 -5 -4 -10 -10 -10 -5
0 -10 5 -10 10 0 6 5 10 10 10 6 0 10 -4 10 -10z m-45 -10 c-3 -5 -11 -10 -16
-10 -6 0 -7 5 -4 10 3 6 11 10 16 10 6 0 7 -4 4 -10z m245 -9 c0 -13 -28 -22
-35 -11 -3 4 1 11 7 13 20 8 28 8 28 -2z m70 -1 c0 -5 -4 -10 -10 -10 -5 0
-10 5 -10 10 0 6 5 10 10 10 6 0 10 -4 10 -10z m-357 -12 c-4 -7 -7 -22 -5
-33 1 -17 0 -16 -8 3 -10 25 -6 42 11 42 6 0 7 -6 2 -12z m317 -3 c0 -8 -4
-15 -10 -15 -5 0 -10 7 -10 15 0 8 5 15 10 15 6 0 10 -7 10 -15z m-350 -5 c0
-5 -7 -10 -16 -10 -8 0 -12 5 -9 10 3 6 10 10 16 10 5 0 9 -4 9 -10z m277 -13
c-2 -7 -12 -12 -23 -12 -13 0 -18 -6 -16 -18 2 -11 -7 -21 -25 -27 -15 -6 -36
-15 -45 -20 -26 -15 -30 -12 -23 11 6 19 4 20 -24 14 -24 -5 -30 -4 -26 7 3 8
21 14 40 15 25 1 32 -3 28 -13 -3 -8 0 -14 5 -14 17 0 25 20 13 34 -6 7 -8 16
-4 19 12 13 23 7 23 -13 0 -12 7 -20 16 -20 13 0 14 3 5 14 -10 12 -7 17 16
28 30 16 46 13 40 -5z m-160 -13 c-9 -9 -28 6 -21 18 4 6 10 6 17 -1 6 -6 8
-13 4 -17z m43 16 c0 -5 -4 -10 -10 -10 -5 0 -10 5 -10 10 0 6 5 10 10 10 6 0
10 -4 10 -10z m151 -13 c-13 -13 -26 -3 -16 12 3 6 11 8 17 5 6 -4 6 -10 -1
-17z m-351 9 c0 -2 -11 -6 -25 -8 -14 -3 -25 -1 -25 3 0 5 11 9 25 9 14 0 25
-2 25 -4z m40 -16 c0 -5 -4 -10 -10 -10 -5 0 -10 5 -10 10 0 6 5 10 10 10 6 0
10 -4 10 -10z m75 0 c3 -5 -1 -10 -10 -10 -9 0 -13 5 -10 10 3 6 8 10 10 10 2
0 7 -4 10 -10z m-40 -30 c-3 -5 -10 -10 -16 -10 -5 0 -9 5 -9 10 0 6 7 10 16
10 8 0 12 -4 9 -10z m90 -29 c7 -12 -12 -24 -25 -16 -11 7 -4 25 10 25 5 0 11
-4 15 -9z m575 -32 c0 -5 20 -9 44 -9 24 0 48 -6 54 -13 6 -7 43 -28 81 -47
39 -18 71 -40 71 -47 0 -7 8 -13 18 -13 14 0 15 2 2 10 -12 8 -10 10 8 10 13
0 21 -4 18 -8 -3 -5 21 -7 52 -6 l57 3 -60 -10 c-35 -6 -167 -8 -320 -5 -242
4 -364 15 -490 45 l-40 9 46 1 c62 1 222 34 339 69 91 28 120 30 120 11z"/>
<path d="M4950 8822 c0 -11 4 -23 9 -27 6 -3 8 4 6 16 -6 30 -15 37 -15 11z"/>
<path d="M3425 8500 c3 -5 8 -10 11 -10 2 0 4 5 4 10 0 6 -5 10 -11 10 -5 0
-7 -4 -4 -10z"/>
<path d="M3630 8486 c0 -4 7 -14 15 -22 8 -9 15 -11 15 -6 0 5 -7 15 -15 22
-8 7 -15 9 -15 6z"/>
<path d="M3605 8450 c4 -6 11 -8 16 -5 14 9 11 15 -7 15 -8 0 -12 -5 -9 -10z"/>
<path d="M3715 8370 c3 -5 8 -10 11 -10 2 0 4 5 4 10 0 6 -5 10 -11 10 -5 0
-7 -4 -4 -10z"/>
<path d="M4195 8320 c3 -5 8 -10 11 -10 2 0 4 5 4 10 0 6 -5 10 -11 10 -5 0
-7 -4 -4 -10z"/>
<path d="M2904 6685 c-21 -30 -33 -59 -29 -63 4 -4 10 -1 12 6 3 6 10 9 15 5
7 -4 9 2 6 15 -4 12 -3 22 1 22 4 0 15 16 24 35 24 51 12 43 -29 -20z"/>
<path d="M2815 6330 c3 -5 10 -10 16 -10 5 0 9 5 9 10 0 6 -7 10 -16 10 -8 0
-12 -4 -9 -10z"/>
<path d="M3790 6670 c0 -5 7 -10 16 -10 8 0 12 5 9 10 -3 6 -10 10 -16 10 -5
0 -9 -4 -9 -10z"/>
<path d="M3690 6640 c0 -5 5 -10 10 -10 6 0 10 5 10 10 0 6 -4 10 -10 10 -5 0
-10 -4 -10 -10z"/>
<path d="M3738 6629 c-34 -37 -17 -40 27 -4 26 21 27 25 10 24 -11 0 -28 -9
-37 -20z"/>
<path d="M3677 6589 c-4 -16 -3 -18 9 -8 16 13 19 29 5 29 -5 0 -11 -9 -14
-21z"/>
<path d="M3740 6590 c0 -6 7 -13 16 -17 8 -3 13 -12 10 -20 -4 -11 -1 -11 14
-3 19 10 19 11 0 30 -22 22 -40 26 -40 10z"/>
<path d="M3855 6590 c-3 -5 1 -10 10 -10 9 0 13 5 10 10 -3 6 -8 10 -10 10 -2
0 -7 -4 -10 -10z"/>
<path d="M3706 6581 c-4 -7 -5 -15 -2 -18 9 -9 19 4 14 18 -4 11 -6 11 -12 0z"/>
<path d="M3830 6560 c0 -5 5 -10 10 -10 6 0 10 5 10 10 0 6 -4 10 -10 10 -5 0
-10 -4 -10 -10z"/>
<path d="M3665 6550 c-3 -5 1 -10 9 -10 9 0 16 5 16 10 0 6 -4 10 -9 10 -6 0
-13 -4 -16 -10z"/>
<path d="M3726 6552 c-3 -5 1 -15 9 -22 16 -14 20 -3 6 19 -5 8 -11 9 -15 3z"/>
<path d="M3795 6540 c-3 -5 1 -10 9 -10 9 0 16 5 16 10 0 6 -4 10 -9 10 -6 0
-13 -4 -16 -10z"/>
<path d="M3860 6529 c0 -5 5 -7 10 -4 6 3 10 8 10 11 0 2 -4 4 -10 4 -5 0 -10
-5 -10 -11z"/>
<path d="M3690 6520 c0 -5 5 -10 10 -10 6 0 10 -8 10 -17 0 -13 3 -14 11 -6 9
9 8 16 -4 27 -18 18 -27 20 -27 6z"/>
<path d="M3455 6510 c-3 -5 1 -10 9 -10 9 0 16 5 16 10 0 6 -4 10 -9 10 -6 0
-13 -4 -16 -10z"/>
<path d="M3400 6470 c0 -5 5 -10 10 -10 6 0 10 5 10 10 0 6 -4 10 -10 10 -5 0
-10 -4 -10 -10z"/>
<path d="M3530 6470 c0 -5 5 -10 10 -10 6 0 10 5 10 10 0 6 -4 10 -10 10 -5 0
-10 -4 -10 -10z"/>
<path d="M3740 6470 c0 -5 5 -10 10 -10 6 0 10 5 10 10 0 6 -4 10 -10 10 -5 0
-10 -4 -10 -10z"/>
<path d="M3749 6430 c-24 -22 -40 -40 -36 -40 5 0 15 6 23 14 7 8 26 24 40 35
15 12 25 23 22 26 -2 2 -24 -13 -49 -35z"/>
<path d="M3472 6437 c-24 -14 -30 -23 -22 -31 7 -7 13 -8 18 0 4 5 17 17 30
26 35 24 12 28 -26 5z"/>
<path d="M3715 6450 c3 -5 8 -10 11 -10 2 0 4 5 4 10 0 6 -5 10 -11 10 -5 0
-7 -4 -4 -10z"/>
<path d="M3685 6430 c-3 -5 -1 -10 4 -10 6 0 11 5 11 10 0 6 -2 10 -4 10 -3 0
-8 -4 -11 -10z"/>
<path d="M3791 6418 c-14 -23 -14 -23 8 -4 22 20 25 26 13 26 -4 0 -13 -10
-21 -22z"/>
<path d="M3405 6401 c-3 -5 -1 -12 5 -16 5 -3 10 1 10 9 0 18 -6 21 -15 7z"/>
<path d="M3625 6390 c3 -5 8 -10 11 -10 2 0 4 5 4 10 0 6 -5 10 -11 10 -5 0
-7 -4 -4 -10z"/>
<path d="M3820 6360 c0 -5 5 -10 10 -10 6 0 10 5 10 10 0 6 -4 10 -10 10 -5 0
-10 -4 -10 -10z"/>
<path d="M3700 6349 c0 -5 5 -7 10 -4 6 3 10 8 10 11 0 2 -4 4 -10 4 -5 0 -10
-5 -10 -11z"/>
<path d="M3826 6285 c-11 -8 -15 -15 -9 -15 6 0 16 7 23 15 16 19 11 19 -14 0z"/>
<path d="M3845 6160 c3 -5 8 -10 11 -10 2 0 4 5 4 10 0 6 -5 10 -11 10 -5 0
-7 -4 -4 -10z"/>
<path d="M4430 5293 c0 -4 5 -15 10 -23 8 -13 10 -13 10 2 0 9 -4 20 -10 23
-5 3 -10 3 -10 -2z"/>
<path d="M4390 5281 c0 -6 5 -13 10 -16 6 -3 10 1 10 9 0 9 -4 16 -10 16 -5 0
-10 -4 -10 -9z"/>
<path d="M4360 5271 c0 -6 -6 -11 -14 -11 -8 0 -18 -5 -22 -11 -4 -8 1 -9 17
-4 32 10 43 21 30 29 -6 4 -11 2 -11 -3z"/>
<path d="M4290 5250 c0 -5 -7 -10 -15 -10 -8 0 -15 -4 -15 -10 0 -13 17 -13
25 0 4 6 11 8 16 5 5 -3 6 1 3 9 -7 18 -14 21 -14 6z"/>
<path d="M4370 5231 c0 -5 5 -13 10 -16 6 -3 10 -2 10 4 0 5 -4 13 -10 16 -5
3 -10 2 -10 -4z"/>
<path d="M4415 5230 c3 -5 8 -10 11 -10 2 0 4 5 4 10 0 6 -5 10 -11 10 -5 0
-7 -4 -4 -10z"/>
<path d="M4435 5170 c-3 -5 -1 -10 4 -10 6 0 11 5 11 10 0 6 -2 10 -4 10 -3 0
-8 -4 -11 -10z"/>
<path d="M4730 6441 c0 -5 5 -13 10 -16 6 -3 10 -2 10 4 0 5 -4 13 -10 16 -5
3 -10 2 -10 -4z"/>
<path d="M7400 6925 c-13 -14 -19 -25 -13 -25 6 0 18 11 27 25 9 14 15 25 13
25 -2 0 -14 -11 -27 -25z"/>
<path d="M7355 6880 c-3 -5 -1 -10 4 -10 6 0 11 5 11 10 0 6 -2 10 -4 10 -3 0
-8 -4 -11 -10z"/>
<path d="M7380 6880 c0 -5 5 -10 10 -10 6 0 10 5 10 10 0 6 -4 10 -10 10 -5 0
-10 -4 -10 -10z"/>
<path d="M7312 6793 c-6 -11 -11 -12 -16 -4 -8 13 -26 15 -26 2 0 -12 43 -22
50 -12 3 4 12 10 19 13 12 3 12 6 -2 11 -10 4 -20 0 -25 -10z"/>
<path d="M6935 5560 c3 -5 8 -10 11 -10 2 0 4 5 4 10 0 6 -5 10 -11 10 -5 0
-7 -4 -4 -10z"/>
<path d="M5955 6380 c-4 -6 -11 -7 -17 -4 -7 4 -8 2 -4 -5 6 -9 11 -9 22 0 14
11 18 19 10 19 -3 0 -8 -5 -11 -10z"/>
<path d="M1620 5235 c0 -8 5 -15 10 -15 6 0 10 7 10 15 0 8 -4 15 -10 15 -5 0
-10 -7 -10 -15z"/>
<path d="M1705 5210 c-3 -5 -1 -10 4 -10 6 0 11 5 11 10 0 6 -2 10 -4 10 -3 0
-8 -4 -11 -10z"/>
<path d="M1650 5199 c0 -5 5 -7 10 -4 6 3 10 8 10 11 0 2 -4 4 -10 4 -5 0 -10
-5 -10 -11z"/>
<path d="M1595 5190 c-3 -5 -1 -10 4 -10 6 0 11 5 11 10 0 6 -2 10 -4 10 -3 0
-8 -4 -11 -10z"/>
<path d="M1675 5180 c-3 -5 -1 -10 4 -10 6 0 11 5 11 10 0 6 -2 10 -4 10 -3 0
-8 -4 -11 -10z"/>
<path d="M1620 5169 c0 -5 5 -7 10 -4 6 3 10 8 10 11 0 2 -4 4 -10 4 -5 0 -10
-5 -10 -11z"/>
<path d="M1596 5145 c-3 -8 -1 -15 4 -15 6 0 10 7 10 15 0 8 -2 15 -4 15 -2 0
-6 -7 -10 -15z"/>
<path d="M1645 5150 c-3 -5 -1 -10 4 -10 6 0 11 5 11 10 0 6 -2 10 -4 10 -3 0
-8 -4 -11 -10z"/>
<path d="M1695 5150 c-3 -5 -1 -10 4 -10 6 0 11 5 11 10 0 6 -2 10 -4 10 -3 0
-8 -4 -11 -10z"/>
<path d="M1595 5090 c3 -5 8 -10 11 -10 2 0 4 5 4 10 0 6 -5 10 -11 10 -5 0
-7 -4 -4 -10z"/>
<path d="M1570 5069 c0 -5 5 -7 10 -4 6 3 10 8 10 11 0 2 -4 4 -10 4 -5 0 -10
-5 -10 -11z"/>
<path d="M1710 5070 c0 -5 5 -10 10 -10 6 0 10 5 10 10 0 6 -4 10 -10 10 -5 0
-10 -4 -10 -10z"/>
<path d="M1670 5060 c0 -5 5 -10 11 -10 5 0 7 5 4 10 -3 6 -8 10 -11 10 -2 0
-4 -4 -4 -10z"/>
<path d="M1581 5044 c-21 -24 -5 -28 18 -5 12 12 16 21 9 21 -7 -1 -19 -8 -27
-16z"/>
<path d="M1740 5035 c0 -8 4 -15 10 -15 5 0 7 7 4 15 -4 8 -8 15 -10 15 -2 0
-4 -7 -4 -15z"/>
<path d="M1754 4987 c-11 -12 -12 -17 -4 -11 8 6 22 13 30 16 9 3 10 7 3 11
-6 4 -19 -3 -29 -16z"/>
<path d="M1571 4974 c0 -11 3 -14 6 -6 3 7 2 16 -1 19 -3 4 -6 -2 -5 -13z"/>
<path d="M1685 4930 c3 -5 10 -10 16 -10 5 0 9 5 9 10 0 6 -7 10 -16 10 -8 0
-12 -4 -9 -10z"/>
<path d="M1738 4935 c-4 -4 -2 -15 4 -25 9 -14 9 -22 0 -33 -10 -12 -9 -16 3
-21 10 -3 13 -2 10 5 -4 5 -1 17 6 25 8 10 9 18 2 22 -5 4 -12 13 -14 20 -3 7
-7 10 -11 7z"/>
<path d="M1705 4901 c-6 -11 9 -23 19 -14 9 9 7 23 -3 23 -6 0 -12 -4 -16 -9z"/>
<path d="M1642 4789 c-17 -27 -5 -40 14 -15 8 11 14 23 14 28 0 15 -15 8 -28
-13z"/>
<path d="M8717 5649 l-42 -41 50 38 c28 21 52 40 54 41 2 2 -1 3 -8 3 -6 0
-31 -18 -54 -41z"/>
<path d="M6523 3149 c13 -20 23 -24 31 -11 2 4 -6 12 -19 18 -22 11 -23 10
-12 -7z"/>
<path d="M6470 3116 c0 -2 8 -10 18 -17 15 -13 16 -12 3 4 -13 16 -21 21 -21
13z"/>
<path d="M6510 3109 c0 -5 5 -7 10 -4 6 3 10 8 10 11 0 2 -4 4 -10 4 -5 0 -10
-5 -10 -11z"/>
<path d="M6536 3094 c-20 -20 -21 -30 -1 -14 12 10 18 10 30 0 19 -16 20 -3 1
16 -13 12 -17 12 -30 -2z"/>
<path d="M6435 3077 c-39 -28 -58 -47 -54 -52 2 -2 24 14 49 36 49 42 52 51 5
16z"/>
<path d="M7698 3775 c16 -30 92 -119 92 -107 0 5 -11 20 -25 33 -13 13 -25 28
-25 32 0 4 -12 20 -26 35 -18 19 -23 21 -16 7z"/>
<path d="M7805 3640 c3 -5 8 -10 11 -10 2 0 4 5 4 10 0 6 -5 10 -11 10 -5 0
-7 -4 -4 -10z"/>
<path d="M7836 3607 c2 -7 14 -19 27 -26 21 -13 21 -12 -2 13 -27 29 -33 32
-25 13z"/>
<path d="M4221 2674 c0 -11 3 -14 6 -6 3 7 2 16 -1 19 -3 4 -6 -2 -5 -13z"/>
<path d="M4232 2610 c0 -19 2 -27 5 -17 2 9 2 25 0 35 -3 9 -5 1 -5 -18z"/>
<path d="M2425 3439 c4 -12 8 -41 9 -65 1 -30 8 -48 21 -58 24 -18 59 -6 63
21 2 11 14 25 28 31 47 22 31 41 -64 76 -56 21 -65 20 -57 -5z"/>
<path d="M4635 3210 c-3 -5 -1 -10 4 -10 6 0 11 5 11 10 0 6 -2 10 -4 10 -3 0
-8 -4 -11 -10z"/>
<path d="M4630 3151 c0 -5 5 -13 10 -16 6 -3 10 -2 10 4 0 5 -4 13 -10 16 -5
3 -10 2 -10 -4z"/>
<path d="M4650 3110 c0 -5 5 -10 11 -10 5 0 7 5 4 10 -3 6 -8 10 -11 10 -2 0
-4 -4 -4 -10z"/>
<path d="M4671 3064 c0 -11 3 -14 6 -6 3 7 2 16 -1 19 -3 4 -6 -2 -5 -13z"/>
<path d="M4503 1283 c-13 -2 -23 -9 -23 -14 0 -12 10 -11 40 6 25 15 23 16
-17 8z"/>
<path d="M4780 1229 c0 -5 5 -7 10 -4 6 3 10 8 10 11 0 2 -4 4 -10 4 -5 0 -10
-5 -10 -11z"/>
<path d="M4745 1220 c-3 -5 -1 -10 4 -10 6 0 11 5 11 10 0 6 -2 10 -4 10 -3 0
-8 -4 -11 -10z"/>
<path d="M4785 1200 c-3 -5 -1 -10 4 -10 6 0 11 5 11 10 0 6 -2 10 -4 10 -3 0
-8 -4 -11 -10z"/>
<path d="M4745 1190 c-3 -5 -1 -10 4 -10 6 0 11 5 11 10 0 6 -2 10 -4 10 -3 0
-8 -4 -11 -10z"/>
<path d="M5370 1534 c-24 -13 -24 -14 -4 -14 12 0 24 7 28 15 3 8 4 15 3 14
-1 -1 -13 -7 -27 -15z"/>
<path d="M3604 1535 c-18 -14 -18 -14 9 -15 15 0 27 4 27 9 0 18 -17 20 -36 6z"/>
</g>
</svg>
